<mxfile host="65bd71144e">
    <diagram id="iYGWogiIaFGqp2ExgGzu" name="Page-1">
        <mxGraphModel dx="1890" dy="804" grid="1" gridSize="10" guides="1" tooltips="1" connect="1" arrows="1" fold="1" page="1" pageScale="1" pageWidth="850" pageHeight="1100" math="0" shadow="0">
            <root>
                <mxCell id="0"/>
                <mxCell id="1" parent="0"/>
                <mxCell id="2" value="" style="shape=image;verticalLabelPosition=bottom;labelBackgroundColor=default;verticalAlign=top;aspect=fixed;imageAspect=0;image=data:image/png,iVBORw0KGgoAAAANSUhEUgAAAzQAAAMKCAYAAABTAgGqAAAAAXNSR0IArs4c6QAAIABJREFUeF7svQu4VVW5/z/UvCWClR1BwEi040HzGscgrBTJ0nM8CGHWAQ6SKSCXLEHCQiVQArUjIuCNCLRIAuliR0XUVKAiQH8VagqaiKCpKdJNU/7Pd57zrv9Yc8+195x7rLX3XHN/xvP4yJ5rXD/vmGuN73zfMeZuu3bt2uVIEIAABCAAAQhAAAIQgAAE6pDAbgiaOrQaXYYABCAAAQhAAAIQgAAEIgIIGiYCBCAAAQhAAAIQgAAEIFC3BBA0dWs6Og4BCEAAAhCAAAQgAAEIIGiYAxCAAAQgAAEIQAACEIBA3RJA0NSt6eg4BCCQVwIjR4508+bNK+ve0qVL3YABA1q0y1u2bHEDBw50EydOrErbr7/+uhs2bJjr2LGjmzt3brPHUks+y5Yti8asNGPGDDd+/PgG/bRxLF++vPRZ9+7d3aJFi1yvXr2ia6pn+vTpTnbr2rVrs8dKQQhAAAIQqD0BBE3tGdMCBCDQRgjYQlnDXbBggevQoUM08jVr1rghQ4a4Cy64IHGBXS94QgVNrfmYgBs0aFBFzpbnhBNOKBNlJoRMeCJo6mVW0k8IQAACHArAHIAABCBQNQISLmPHjnWzZs0qPem3ymfOnOmWLFlS90/85V1Rao6HptZ80giaxoSKxrZ9+/ZIjK5cuRIPTdXuDCqCAAQgUFsCeGhqy5faIQCBNkRAi+UJEyaUhS41NnyJHOW3FA9LM8/Opk2bnEKiFEKlMCgLIVP51atXl3mD/D506dKlLOTM8h9zzDHuiiuuiJqNh1olhWONGDGiJGBUh5KFcsXDxyqFealMWj5JoXJx75DqUohYu3bt3G233eY+/vGPO5V75plnov717NkzUTymFZYmfM4991w3atSoVDZSpv79+5fsYQJu+PDh7pprrnGyo1JrhB+2oduQoUIAAm2QAIKmDRqdIUMAArUhYAvxtWvXVty/YS1rYX3jjTeWxE88LK3S31oU24K4OYJGAsoESjwETH2L75FpLFzO92govM7yStQk7RdKyyetoNFeGV9spfHQ+CKxMWFhIWi+QNF4161bVxJKlsdEXJznxo0bo1BDJdufEw9tq81MpFYIQAACbYsAgqZt2ZvRQgACNSbgL9qtqbi3oNLC2/ceXHnllaXwJ9uLE18MN0fQxMPefK+J+hsPmau0b6a5+2my8PEPM0jy0MS9YWkEjcboixqzkS9cdC3Jm+QLtr59+yYekODn6dSpU+LeqbgQrPGUpHoIQAAChSeAoCm8iRkgBCDQWgT8E7fUB/MmVAq9shAliZk5c+a43r17l21uj3tAmiNoGgtRsxO+khb9vifEeFrIXKXwrqa4V+KT1kMTP4UsraDx+xUP+zNvS9JeG5+/xiwPUfwAAl94DR06NHFPFQcONDUz+BwCEIBANgIImmy8yA0BCECgWQT0VH7FihVR6NG2bdtKRwvHK9OelquvvtpJ1MQXy/GFfrUFTY8ePSKvgx1nLBEj0dDYUc1xURL3dKSF5fOJ7/1RHUkemmoIGuuf1b9169YopExhg/H6kwRN/EhsBE1ai5MPAhCAQPUIIGiqx5KaIAABCFQk4C+GlamxwwNsUdzSHhoJrXi/soSWmbhJ8uY0NTWaEgu1FjTqn+85E4s0gqaSh0a269OnT6KHJu3BBE0x43MIQAACEPhfAggaZgIEIACBKhFobG+Ef2SxmtNm8fjmeT8UKe0emvieGP+wgUqnnPnvyPEX8Y888kiDU9NMaPTr1y/VUc1JXiPDm5aP9dsXC/H3xySFbTUVctaUOPPrbMpDE7qHRkyac/R1laYq1UAAAhAoFAEETaHMyWAgAIHWJNDY4j/+/pb4KWfxxXilv7XQ9l/+qH0c9re1LwYKbcsqaCwUzurzj3COh5IliYOmBEVaPkkv4LTjof19SM0JOYufTGbzJe4Va2oPjU5xa+4pZ1mO9m7N+UzbEIAABOqFAIKmXixFPyEAgbogkPQeF3U86YjgShvSbaDxE8Euu+yy6J0rvmfHr0Mb1bWn46qrrope7plV0OhQgKQ+bd68uey44rgIsD03ut5UuFlaPvGxa8zqh3k2muOhqcRV1+Pv40kjaFQufmKaP377bPDgwZHd7H1CdoRzXUxoOgkBCECgDgggaOrASHQRAhCAgL94rvSeFyjli0BT7+XJV2/pDQQgAIH6JYCgqV/b0XMIQKCNEWCBXF8Gx171ZS96CwEI1C8BBE392o6eQwACbYwAC+T6Mjj2qi970VsIQKB+CSBo6td29BwCEIAABCAAAQhAAAJtngCCps1PAQBAAAIQgAAEIAABCECgfgkgaOrXdvQcAhCAAAQgAAEIQAACbZ4AgqbNTwEAQAACEIAABCAAAQhAoH4JIGjq13b0HAIQgAAEIAABCEAAAm2eAIKmzU8BAEAAAhCAAAQgAAEIQKB+CSBo6td29BwCEIAABCAAAQhAAAJtngCCps1PAQBAAAIQgAAEIAABCECgfgkgaOrXdvQcAhCAAAQgAAEIQAACbZ4AgqbNTwEAQAACEIAABCAAAQhAoH4JIGjq13b0HAIQgAAEIAABCEAAAm2eAIKmzU8BAEAAAhCAAAQgAAEIQKB+CSBo6td29BwCEIAABCAAAQhAAAJtngCCps1PAQBAAAIQgAAEIAABCECgfgk0EDRPPPFE/Y7G6/kRRxxRiHEwCAhAAAJZCBTlOzzLmFsrL78zrUWediFQnwT4fm7abs39Xm0gaB588EF38sknN91ijnMMHz7c3XrrrTnuIV2DAAQgUBsC06ZNc1//+tdrUzm1lggMGjTI3XHHHRCBAAQgkJrAHnvs4d55553U+dtaxjFjxrhZs2Y1a9gVBc3nP//5ZlXY2oW+//3vOwRNa1uB9iEAgdYiYIKmXr/DW4tblnb1O4OgyUKMvBCAgAhI0Hz4wx92PXr0AEiMgL5XayJoLrroInfttdfWFfANGza4448/HkFTV1ajsxCAQDUJmKBZsmSJ++xnP1vNqqnLOff000+7ww8/HEHDbIAABDITMEHz6KOPZi5b5AIPP/yw+/jHP46gMSMjaIo83RkbBCCQhgCCJg2l5udB0DSfHSUh0NYJIGiSZwCCJsYFQdPWvyoYPwQggKCp7RxA0NSWL7VDoMgEEDQImlTzG0GTChOZIACBAhNA0NTWuAia2vKldggUmQCCBkGTan4jaFJhIhMEIFBgAgia2hoXQVNbvtQOgSITQNAgaFLNbwRNKkxkggAECkwAQVNb4yJoasuX2iFQZAIIGgRNqvmNoEmFiUwQgECBCSBoamtcBE1t+VI7BIpMAEGDoEk1vxE0qTCRCQIQKDABBE1tjYugqS1faodAkQkgaBA0qeY3giYVJjJBAAIFJoCgqa1xETS15UvtECgyAQQNgibV/EbQpMJEJghAoMAEEDS1NS6CprZ8qR0CRSaAoKkDQbNmzRo3ZMgQt2nTplJv+/fv7xYsWOA6dOhQcX7OnDnTbd682c2dOzd4DiNoghFSAQQgUOcEQgXNsmXL3IQJE9yiRYtcr169ckHj9ddfd8OGDXPLly8v68/SpUvdgAEDyq5V8zclafAImlxMCToBgbok0BxBU+n7b8SIEVVZO2/ZssUNHz7cTZkyxT3yyCNVW5NnMVCuXqwpQTN27Fg3a9as0o/gyJEj3fbt2xsVNcqjhKDJYnryQgACEEgmECpo7Dv50EMPdePHj88FZvtB7927d6lPEl7Tp093EjVdu3ZtsX4iaFoMNQ1BoHAEQgSN//1XTTBJ6/dq1p+mrtwLGl/1aUC+B2fGjBmue/fubuDAgdFY9aPUqVOnBnmy/KDioUkzbcgDAQgUmUCIoNF3th5MXXLJJe5b3/pW9IDq+eefd5MnT3bz58+PhIM8IKtXr44eVN10002RN0fJnhba51u3bnWDBg1yffr0SfxelyDR979+B+QJateuXfRgy/f29+zZM/ptaN++feSh8X/Q7fflwgsvdDfccIPr2LGje/LJJ12/fv3cq6++GtVlbfj9Uzm1u3bt2qjtrJ4oBE2R7x7GBoHaEqi2oPG/j3fs2BF5WvSdPGfOnOg7cd68eaU1trzZ/veroqj0Ha/vfHm/9ffxxx/vXnjhhej70/+utO9iVaY2VPdtt91W+g7t0qVL6XvV1vRx73ljZHMvaOypmoSMfqxOPPHEKPxMPzL6EdEP4sSJE6MxCt69996bmKexkDUfEIKmtjcitUMAAvknECJo9N2ssGE9SJKnRuKgb9++kZjQ97h+oOy6SNj3uP5teVR+yZIlJc9J0ve6+qj8+v63+vUDOWnSpFLog0SOhY/JExMXNOahuf76692YMWMi8aR+WxnVJeHit6G/JZBsLP5vUdrfGQRN/u8BegiBvBIIETR+yK0JjMWLF5ceMCUJGq2tTfSYeLEHQ/oulydeD50swspCzuLfuVaHfXfb963v0bftI835Xq0rQZOkDOOCRhMwrh6b2oODoMnrbUu/IACB1iAQImguvvjiSARITOhHacWKFdHDJv2YKZ1zzjmlHz79kJp3xsYpL41+IM2DYyIh/r2uNvTjauFiJkKGDh3aYC+mfrj1O3DppZcm7qHR5yZc9Dvj1+V7ltRH/4mj9TmrlwZB0xqzmjYhUAwCIYImKeSsMQ+N5TeBod+GcePGRXtl/P2RfsiZCZr4wyXl0ffp1KlTowdIelAU/761KKykvY1NWS/3gsYPOVu4cKFbt25d9AMmV3+Sh0ZKLylP2idneGiamjJ8DgEIFJ1AcwVN0sEu9hRQYWcKYfjUpz4ViRUTOUkHuvg/sPruTvpeb0zQxEWI7JW0h8bsaCIl6Qc2SdDY5tfmHniAoCn6HcT4IFA7AkUVNLYP3sJ87bcj7f7G3Asa/1AA/djYJtP4dU0dwTD3l4U7NHWgQHzKIWhqdxNSMwQgUB8Emitokk4Hs+/k888/340ePdo98cQT7mtf+1r0ZM4/Da1Hjx6lkDBR8j00Sd/rjYWcSez44WOqKx4q4VuikqBJCjlTfPj69euj+G/bY5P1YAEETX3cB/QSAnkkUG1B4x+OImeBvOb6btMDqLiHJinkTIzkGc8achZ/gKT1vZLW7+bNsX2XaeyQO0HT2LHN/ubMyy67zK1atSraZGphC/LcKNkhAX6etAoPQZNm2pAHAhAoMoHmCBp/v6O/kdOPhV65cmWDU8UkgiodCmDhwpW++/XjG3IoQFMemvgBA/YaAcWZcyhAke8AxgaB/BKotqDxw2j1Hbdz587SoQBxQaPvZP/7z9/or+/Ezp07pzoUICnE1/bc2D6frGFnuRI0eZg+CJo8WIE+QAACrUmgOYKmNfvbWDhZa/arUtt4aPJoFfoEgfog0BxBUx8jC+slgibGD0ETNqEoDQEI1D+BehA08c35aV7CnBfLIGjyYgn6AYH6I4CgSbYZggZBU393Mz2GAARqSqAeBE1NAdS4cgRNjQFTPQQKTABBg6BJNb3x0KTCRCYIQKDABBA0tTUugqa2fKkdAkUmgKBB0KSa3wiaVJjIBAEIFJgAgqa2xkXQ1JYvtUOgyAQQNAiaVPMbQZMKE5kgAIECE0DQ1Na4CJra8qV2CBSZAIIGQZNqfiNoUmEiEwQgUGACCJraGhdBU1u+1A6BIhNA0CBoUs1vBE0qTGSCAAQKTABBU1vjImhqy5faIVBkAggaBE2q+Y2gSYWJTBCAQIEJIGhqa1wETW35UjsEikwAQYOgSTW/ETSpMJEJAhAoMAEETW2Ni6CpLV9qh0CRCSBoWkHQDBs2rC7n1IIFC9zw4cPdrbfeWpf9p9MQgAAEQgiYoKnX7/CQsbdUWf3ODBo0yN1xxx0t1STtQAACBSBggua4444rwGiqOwR9r44ZM8bNmjWrWRXvtmvXrl1+yQcffNCdfPLJzaosL4UQNHmxBP2AAARamoAJmpZut621h6BpaxZnvBAIJyBB884774RXVNAaqipoHn300ZpiWrVqlfvJT37ipk+fXtN2jj322JrWT+UQgAAE8kig1t/htRjz6aef7hYvXuzat29fi+prVie/MzVDS8UQKCSBPH0/P/XUU9FaPG8RTc39Xm3goan1DPqf//kft3DhQvf973+/1k1RPwQgAAEI1AGBbt26Oe2BfM973lMHvaWLEIAABOqfwP/7f//PjR492j300EP1PxjnHIKmEGZkEBCAAATqlwCCpn5tR88hAIH6JICgCbQbHppAgBSHAAQgUDACCJqCGZThQAACuSeAoAk0EYImECDFIQABCBSMAIKmYAZlOBCAQO4JIGgCTYSgCQRIcQhAAAIFI4CgKZhBGQ4EIJB7AgiaQBMhaAIBUhwCEIBAwQggaApmUIYDAQjkngCCJtBEd999t7vtttui/0gQgAAEIACBww8/3K1du9YdcMABwIAABCAAgRYgIEHz5S9/2d1///0t0Frtm2jxU85qPyRagAAEIAABCEAAAhCAAATaCgEETVuxNOOEAAQgAAEIQAACEIBAAQkgaApoVIYEAQhAAAIQgAAEIACBtkKgxQXNq6++6rZv3+569OjRVhgzTghAAAIQaITAL37xC/eRj3zEvetd74ITBCAAAQi0AIGdO3e6p59+2h177LEt0Frtm2hxQcMpZ7U3Ki1AAAIQqCcCnHJWT9airxCAQBEIcMpZoBURNIEAKQ4BCECgYAQQNAUzKMOBAARyTwBBE2giBE0gQIpDAAIQKBgBBE3BDMpwIACB3BNA0ASaCEETCJDiEIAABApGAEFTMIMyHAhAIPcEEDSBJkLQBAKkOAQgAIGCEUDQFMygDAcCEMg9AQRNoIkQNIEAKQ4BCECgYAQQNAUzKMOBAARyTwBBE2giBE0gQIpDAAIQKBgBBE3BDMpwIACB3BNA0ASaCEETCJDiEIAABApGAEFTMIMyHAhAIPcEEDSBJnrmmWfcxo0b3RlnnBFYE8UhAAEIQKAIBG6++WY3dOhQt/feexdhOIwBAhCAQO4J/PGPf3T333+/+9znPpf7vqbpYIu/WDNNp8gDAQhAAAIQgAAEIAABCEAgDQEETRpK5IEABCAAAQhAAAIQgAAEckkAQZNLs9ApCEAAAhCAAAQgAAEIQCANgRYXNGvWrHE6GGDKlClp+tcgz+uvv+6GDRvmevfu7caPH9+sOvxC1a4vuEP/V8HIkSPdoYce2mCMy5YtcwMHDnQzZswofWZjGDJkiBswYEC1utCgni1btrjhw4dHtuvVq1dwO6pPY+ncubNbsGCB69ChQ3Cd1ahg5syZbvPmzW7u3Lmpq5MNJk6c6E477TS3dOlSJ1ssWrTIzZ49u2xcyjd69Gg3atSoEsM09tN9M3nyZDd//nzXtWvXJvulMaxevTqRq+qaM2dOqY9XXnml03+TJk1qUHfWdpvsWCxDpXmeVI/NvwkTJpT6n2a+G9/ly5eX3Tf+2BYvXlyRV2NjSmO7rEwaG3u17r14G2nu7VrOhbPOOsstXLjQ7b///tXARR0QgAAEINAEgaefftpdc801mdY6eYba4oIm9JSzaguQatdXDWM31ictAPv161dT4VJpDFrQjB071s2aNasqgkbtJC3wq8GwpeuQgOjevbvr1KlTmViICxoTE/71NItiCdnp06dHYimNoGls/HFBo77ooA7VffXVV5cVrWa78T5lvfeaK2gqLcT9sTVX0LTUPKvFvef3PY2gqeVc4JSzlppJtAMBCEDgfwlwylngTKimoDnnnHMij0HHjh3dbbfdFi0o9VR827Zt0f/tqb9EgJIWhPLu6Emt5e3Ro0fJ46P65DE44YQTIsWqcvPmzYvK+h4RQ+A/+bX65LkwL4ryjRgxIqpL1+yJ/3333ef69+8f9U8LST3N37RpU6lPjzzyiNNTaL9OazNJ0PgLYuVLakfeA/P4mGdE17QAt/Z79uwZLWqV4lxVp57qi531feXKlRGvSuPU09Y33nij5FVIehofImhs3LL/ihUrIpsbO79P+rfZ8tRTT436688Jjbl9+/bRPDAW8tDIY2EcnnzyyYiNPBnxOSGeuq75tWPHDnfrrbe6L37xi9H/L7/88gYCQbaWdzGpT/I4+PNONrn++uvdmDFj3Nq1a6P55M9jVW728D1c5qGZNm1aNC6VVdIYVGdSHy+++OLInuZ9s3mS1G7S3FT9WngbQ/V1+/bt0TwXF9WtuqxsY/Pcv4f8fssejXlo4veebGjt+pziY9O9ce+990aMdH/afevPnaTvgabuPYl/PQQw76kvTFRf/N4Tn/j9a3XU4t6z70Ox2blzZ+R9te9EtWfzy59HYqMTyazvlb4fs/xUIGiy0CIvBCAAgXACCJpAhtUWNFqsDBo0qLRAVPdsIWo/zhbio5AGJRMYWhhqsXXppZe6Y445xj322GOlhYcfdlTp6aUf1qPFvRbUCiVS+1qE+GJJizgtxJSnS5cu0SJLgkILcRMa1qYtWONhdZWe5McXVUntaNwm8iSiJE6+9rWvuXHjxpVCyKx9WwTGuWoRYx4a1Wf/rjROXTf2GnOlcLUkkeYvOG3KxRfRvqAxm9oYVcYEiv5t3o3nn38+srEEqn+9kqDx51elOSEBLTumCVGzsVbqk8TG1q1b3Uc/+tHIe5U0BokDpSOPPNI1NTePP/5498ILL5TmvC/047eyxqfkh3L6T+Ul2uL3j+8xintcNFYJmviiXnWqH3Y9KXxUeSyczJ+XjQkaXyz4c7JPnz6J4XpxD82NN94Y9cuf2xJdFn6YxDrNvScBa3WoTc0V/ztKAtLGKO9r0v2rBw/Vvvfi31/Wru6FpPmleW730eOPP+5OPPHEKJzS7BkSNoqgCfxhpTgEIACBjAQQNBmBxbPXQtBIGGjx4y84beFoIUBajPlPSuPhK3oaWemprI0h7qVJ8jjEf9z9hYotBvzFs+rWotlfrCeF4jTmyai08PXb0ULZFkQKr1HSQs9/yqprvkcgztUXNHEvWNI4FRpli2S1JREVD8Eyts0JpYtzUltalPlJNrUkwZGGlS1ATdgZB99z4s8J+3dTe7o058wGvjhIEqp+W+Y180POKnkHrS+2WJXAVl0ak+ppbM+JLbZ9YWaLfhP+5mlIWtzHw6LsXoh7idRHzXfz+lXaD5fkbWlM0FS69zRvk/YfVQo5k2A08a2HIOaRS/oeSDOf7DtIc19zSaLF94xavbr3zjvvPHfLLbdEtvLvX1/QVOPei987cXsmzS9f0Oje9r1xSV7CLD8VCJostMgLAQhAIJwAgiaQYUsJGlucyfuhdP7555eedmtRFxc0cQ9Nms3K1RA0/lNoLca1MKj05LqSqEmzqLJQJi0eFVqjha5S0kLPD0nzhWJzBI3t19ACdr/99ks8yCHUQ2ML4kqb+S28rBqCJumghiTPRtJt4guGSn2yhe4FF1xQNmdVnwkahSVJBFv4WJLnK34ogIkDCytM2odTS0HjewKNTaU9NHZd+SSkbrrppsjDYV6NSiFntRI0STaPj0FCz7eRL0b69u0beSq18d08U/IUNiWyQgVNY/deY4JGwiVpfvmCRoJ83bp10RzUfGzM85fmJwNBk4YSeSAAAQhUjwCCJpBlSwkaEyy7du1y3/zmN6N9Af4iMv7kWYtiPzRFXowlS5aU9pRYiJj/hDsesqEFpxZdeiKdFHKW5KFR+Ilt8k8TipNmD01SO+q36r/qqqvcEUccEXlKbF+DhZbF91005qHRNKgUchbfvK69GY8++mjJDv4UqsYeGhM0Gp+FzcTD4JJCzuJhPBaKVslDIz5Jc0LjSRNy5gsf3zvgh8GpT7bQrRQe5y8gFepoY/ZPnjNbKuRsn332iYRkU6dU1TrkTHudksI9GwutlBhQ2J3KNiVoQkPO7FQ430OjkLPGvgfSPkwQ23vuuccdfvjhEQN7aBC/9/Q9o++Oxjw01br3KoWc+R4gf37FBY0JPQstJOQs8MeR4hCAAARakACCJhB2WkHz3HPPuUMOOaRBa/6TRdvEnxRypoLxp9RJYRT+wtc2aqtsmkMBlC8eGmTCIWmzfJLQ0BPz+GZpE1+20d1fqIYImqQn4n7YiH8ogC/g4ntr7JjlSocCxAVNYzH21RQ0ZnMLO0sKIfQPBbDFssIN/euVBE3c3haC6IeSxT0f9plErsSkf1xz0qEAfp/krWvXrp07+uijS+GBEr/+RvfBgwdHm7klxvzQJnk1tED3N5Sr/5XCzirZweaH2k06VCN+fHeWQwEam+cWPijPnsao/W1iKE9PlkMBdB9XEnL+2LQ4TxI01sdKh4OkFTRxr6dskXTvSaw29j1R7Xsv6VAA2+OnvsTnl+aZ5oL+s++4yy67zK1atSr1keJJPyF4aAJ/WCkOAQhAICMBBE1GYPHsWgTfcccdThtwk5I2RF977bWR9+Dmm28ObK14xZuz16S1KTQWvhciaJozrkoHKzSnLr+MHduc5r0ooW2lKV8p/K5SWS2uk45tTtNWpTy+RzSkHso2n0Ca0Nnm1169kjpZ8v7778/Nu6iqNzJqggAEIJBPAr/73e+iw6F+/OMf57ODGXvV4u+hqdQ/EzISM0raHIugaUjLnupqj0VTm9AzzoWqZzfxINsmvT+lNV6sWStB05iXpupgm6jQvBtNHQJg1VRLVPoeUNXd2H6dlmbS1tpr6t5razwYLwQgAAEIFJtAqwuauJAx3AiaYk88RgcBCEAAAhCAAAQgAIFqEGg1QaN3Y1xzzTVReFlSQtBUw7zUAQEIQAACEIAABCAAgWITaHFB8+KLLzqdenXbbbc1SlbhKvYCwWKbgNFBAAIQaNsE9JJYnSy55557tm0QjB4CEIBACxHQGlsH7px00kkt1GJtm2lxQWOnnOmdJvLO3HfffYkj/M///E939dVX13b01A4BCEAAAq1OQA+wdOLOe97znlbvCx2AAAQg0BYIcMpZoJXjxzbr7yRhQ8hZIGiKQwACEKjuyEfaAAAgAElEQVQTAhzbXCeGopsQgEBhCCBoAk1Z6T00d999dyRs9O4VJQRNIGiKQwACEKgTAgiaOjEU3YQABApDAEETaMqmXqxpwuYDH/gAxzYHsqY4BCAAgXoggKCpByvRRwhAoEgEEDSB1mxK0Fj1Ejaf/vSnA1ujOAQgAAEI5J0AgibvFqJ/EIBA0QggaAItmlbQBDZDcQhAAAIQqBMCCJo6MRTdhAAECkMAQRNoSgRNIECKQwACECgYAQRNwQzKcCAAgdwTQNAEmghBEwiQ4hCAAAQKRgBBUzCDMhwIQCD3BBA0gSZ6/vnn3VNPPeVOPvnkwJooDgEIQAACRSDwgx/8wJ111llur732KsJwGAMEIACB3BN49dVX3Zo1a9wZZ5yR+76m6WCLv1gzTafIAwEIQAACEIAABCAAAQhAIA0BBE0aSuSBAAQgAAEIQAACEIAABHJJAEGTS7PQKQhAAAIQgAAEIAABCEAgDYEWFzQPPfSQ+9GPfuSuueaaNP0jDwQgAAEIFJxA37593Z133unat29f8JEyPAhAAAL5IPDkk0+6qVOnukWLFuWjQ4G9aHFBwylngRajOAQgAIGCEeCUs4IZlOFAAAK5J8ApZ4EmQtAEAqQ4BCAAgYIRQNAUzKAMBwIQyD0BBE2giRA0gQApDgEIQKBgBBA0BTMow4EABHJPAEETaCIETSBAikMAAhAoGAEETcEMynAgAIHcE0DQBJoIQRMIkOIQgAAECkYAQVMwgzIcCEAg9wQQNIEmQtAEAqQ4BCAAgYIRQNAUzKAMBwIQyD0BBE2giRA0gQBbofiyZcvc9OnT3dKlS13Xrl2jHuiajvpbsGCB69ChQ1V6NXPmTLd582Y3d+7cJuuzvOrXsGHDXO/evd348eObLJfHDGvWrHFDhgyJuiamvXr1qtjNLVu2uOHDh7spU6aU5dP1gQMHuokTJ7oBAwakHmal+lJXkLOMr7/+ejQfxDMLh5wNo811B0HT5kzOgCEAgVYmgKAJNMDPf/5zt3z5cvftb387sCaKtxSBlhI0WcYzcuTIKHsRBE0WIVdtASIxNXbsWDdr1qxGhVQW27RmXgRNa9Jvftuf/OQn3Y9//GPeQ9N8hJSEAAQgkInAE088ET0c/d73vpepXF4zt/h7aPIKgn5VJtCUoNmxY0fkHVi7dq3r3r175GXo0aNH9KS8Y8eObsWKFdG1Rx55xE2YMCFqaMSIEQ08Mf7CXoJl3rx5iXnVH7WnpHrlOWrXrp3T4nzTpk3R33o6b14Lv19x74dfl+pT2Z49e0ZeEPVdL57q16+f27hxo9u6dasbNGhQNEZr38pYX+SxUkryEthiW4LeOG3btq1U14wZM8q8TEn5u3TpUurbbbfdVqpH181Do/7H7aFxmydIjPr37x+JGIkZ9Ud/jxo1yom7Prf++bx8r5w/Rr0UUeP1x2X2N89ZkkfPxJk4+2OJ91XjMe+gPwb/us2XU089NeKvv/HQ8K0GAQhAAAIQaBsEEDRtw85Bo4wv+q0yf1FsIT62cLXFsharCiGrtBj2F50maIYOHeomT57s5s+fHzWVFGIV99Aon8TETTfd5FavXl1arMf7FQ+RU7+sD9b+pEmTIkEg8aIwNl1fsmRJaVFdqYx5Op5//vlS/y1EzxbZ+r/xsDC+xYsXJ4ba2Rj9/Ndff70bM2aMO+GEE6J61DeNd9q0aZGoUB+0+K9kDxMYqvvQQw91ffr0KXloFi5cGF2zMcfD/yRAksZ45ZVXRnby+ynOl156aSkUsJKg8TnbeMXft7lvl6TrEpzGUuw1dolDBE3QbU9hCEAAAhCAQN0QQNDUjalar6ONeWhsIS0viCU93dfids6cOaUFrRal5p2xfHEvTXxfjJ74J3lyfHEQDzmzhXOlfiXtUfEFm9ozQWP7UUw0+GIoXkbj1YJci2sleaX8vUDxUCg/dEyeq7h4qJT/wgsvdBIQ1jd5LCT+pk6dGgmd8847z91yyy2Rt8y3x9VXX+1uuOGGBntv/JAz8xYleWesrvgYjb8JKBuXbO3bvzFB43MWBwla1SdPkSV5Y2SXiy++uMH1f/7nf448dOJNyFnrfU/QMgQgAAEIQKC1CLS4oFHYjhYqH//4x1trzLSbkUBTgmbcuHENFsq2sDSPQJp9IvE8fsiYhZH5C2v9uzFBk9Qvf+jWR10z744W1I0JGuWVJyRexrwTEjJKEja+h6AlBY28SUmHBiR5upL20Jj4lAcuyaPlj9HCzaotaMxD53u4TLzJc1fJ84WgyXhz5yT7D3/4Q3fmmWe6vfbaKyc9ohsQgAAEik3gT3/6k/vFL37hPvOZzxRioC0uaDjlrP7mTWOCJim0TCIjKeRIT+39/TXxk8n8kDM93Z89e3YEK2k/SqVDARoLeYuf1OYvfm1hrhC5NIJGC3i/jHkH5G14+umno3A5f9GtcSSFkEmo1SLkzA/1S7KH9UXeEAsjU8iZCbFKp9iJWXyMlcblh6Ipz/bt28sEUvxktsZC/vywOj8UUNcVtqZ5KJaEnNXf94t6zCln9Wk3eg0BCNQvAU45C7QdgiYQYCsUDzkUwBctfthZU4cCpMlrAkkL2aTN50mHFcQPBbB2FGY1ePBg99hjj5X2o1QKOUsqY56MxjxRSZv81Z9KZSodCqAFvPbQ6NAECw9LcyiA7/GyDfWaTqqvc+fOpXE3doiC8sf7W2lc8bC8tIJG4rDS5n8OBWiFL4DAJnV6mbwvjSUETSBkikMAAhDISABBkxFYPDuCJhAgxXNLoDXDnap9nHMlyK05xtwano41SuDDH/6we9/73ue+8pWvVBQ2CBomEQQgAIGWJYCgCeSNoAkESPFcEjDvhzwd1XzZaJrBtlTbLdVOmjGTp34ISND89re/jTr8iU98IlHYIGjqx570FAIQKAYBBE2gHRE0gQApDgEIQKCOCPiCxrodFzYImjoyKF2FAAQKQQBBE2hGCRq9S0OnMFnq0KGDO/zww8tq1htMd+7cWbqmY1mPOOKIsjy///3vnfZJWHr3u98dvdDRTzpRTSc5WNpnn33cUUcdVZbnmWeeca+88krp2p577umOOeaYsjzPPfece+mll0rX9thjD3fccceV5dGGZO0T8NNHPvKRsr91NK5OevPT8ccf73bffffSpRdffDF6KaSfjj32WPeud72rdOmPf/yj+8Mf/lCWRwuHvffeu3Tt1VdfjY4D9tORRx7p9t1339Kl1157LdrE7idxFm9Lb7zxRvSCST996EMfKnur95///Gf3+OOPl+XR/o73vOc9pWt/+9vfSk9q7eIHP/jBKBzF0ptvvul0k/npkEMOcf/0T/9UuvT222+7DRs2lOXRHhJthLe0a9cut27durI8nTp1ivaK+El5lNfSQQcd1GAz/6OPPur+8Y9/lPIceOCB0SZmP6nP6rul9773vdE7Xfz0u9/9zv31r38tXUqa92Iolpb2339/p2OJ/ZRm3sumsq2lNPNeJ0wdffTRZW1pjmmuWUoz73fbbbdoj4+fXnjhBaf//KQ8ymtJ947uIT+lmffqs386lu5l3dN+SjPv/+Vf/sXtt99+pWL6bhFrP6WZ94cddpg74IADSsVkc9neT2nm/Qc+8AH3/ve/v1RMc1Bz0U9p5v3BBx/s9J+f0sx73WO61yypL+qTn9LMe/Hwj+D2y5uw0cEUas//vihriD8gAAEIQKCqBBA0gTglaPS+DH9BeOKJJ0Ybkv2kI3f9RYAWLddee21ZHm3a/vWvf126JlHkv/tDH1xxxRXu4YcfLuXRyVPf+c53yurRS/juvffe0jUtWHXylJ8kwn70ox+VLmnh4/+tD/T+D7+cRIpfr/LcfvvtDdq/6667yoSINrnHx6FjTf1F0s9+9rMGPHSCmBbtlh544IEGXPXiSX+hrSP7vv71r5eNVSdG+cJQG+W/+tWvluX51re+VbZo1cJPb5r30+WXXx69uNGSRNq5555blueSSy4pvbtFH7z88svunHPOKcujxY6/qVhCV0cK++lLX/qS+9znPle6pIXYaaedVpZHm/7tyGX74PTTTy8TIp/97Gejd9/4SZvmtXfE0hlnnOEuuuiiBnX7YvaUU06JTkuL99FfaOtAgG9+85sNxrpx48bSNS3o9Q4ZP4mZL9YkePSOGT9ddtllbtWqVaVLEoX2olK7qNPP7rvvvlIeicbvfe97ZfVcd9117ic/+UnpmgTWnXfeWZZHc+qOO+4oXZPwvvvuu8vyaG5+97vfLbum7wI9PLCkOa6DDvykgwXat29fuqR75dvf/nZZHt1TEqKWVq5c6a666qqyPLo3/e8cnY6mo6H9pHtcosaSFth6yaifdCCC/yBDD15Gjx5dlkcPa3RIhSWJwi9+8Ytleb72ta9Fp+RZ0sOSL3zhC2V5vvzlL7t/+7d/K13Tg4WzzjqrLM8FF1wQvQDW0ltvvdXgCE6dZKf//PTpT3+6TKSrDtXlJ7WlNi2pL+qTn9Rn/0HPqaeeGp2C5yfNGf/hVNmHzrmPfvSjkeDRQxMETZwOf0MAAhCoDQEETSBXQs4CAVIcAhCAQB0RSAo5U/clZHRQgMQUIWd1ZFC6CgEIFIIAgibQjHqKrfCtf/3Xfw2sieIQgAAEIJB3AnFB4wsZ67sedMm743vs8j4u+gcBCECgngko8kRhzAr9LUJq8RdrFgEaY4AABCAAgXQETNAkCZl0NZALAhCAAAQg0DgBBA0zBAIQgAAEakZAe8UstKxmjVAxBCAAAQi0aQIImjZtfgYPAQhAAAIQgAAEIACB+ibQ4oLm/vvvd0uWLGlwild9Y6T3EIAABCDQXAI9e/aMTtzTUeYkCEAAAhCoPQGdqKrTWJcvX177xlqghRYXNJxy1gJWpQkIQAACdUSAU87qyFh0FQIQKAQBTjkLNCOCJhAgxSEAAQgUjACCpmAGZTgQgEDuCSBoAk2EoAkESHEIQAACBSOAoCmYQRkOBCCQewIImkATIWgCAVIcAhCAQMEIIGgKZlCGAwEI5J4AgibQRAiaQIAUhwAEIFAwAgiaghmU4UAAArkngKAJNBGCJhAgxSEAAQgUjACCpmAGZTgQgEDuCSBoAk2EoAkESHEIQAACBSOAoCmYQRkOBCCQewIImkATrV692t11111u2rRpgTVRHAIQgAAEikDgzDPPdLfffrvbf//9izAcxgABCEAg9wSeeuopN3PmTHfTTTflvq9pOtji76FJ0ynyQAACEIAABCAAAQhAAAIQSEMAQZOGEnkgAAEI1DGBMWPGuF/96ld1PALnOnfuHP1HggAEIACBtkPg+uuvTzVYBE0qTGSCAAQgUL8E2rdv79544436HQA9hwAEIACBNkdgwIABbunSpanG3eKC5tlnn3WPP/64+8xnPpOqg2SCAAQgAIEwAhI0xx9/vHvwwQfDKmqF0pdffrm74oor3N133+0+/vGPt0IPaBICEIBA8Qi88sor7uc//7mTaMhjOvjgg90pp5ySX0HDKWd5nDb0CQIQKDKBrIJmy5Ytbvjw4W7KlCmuV69erYrGBM0DDzzgPvnJT7ZqX2gcAhCAQFEI5P2Us/e85z0ImqJMNsYBAQhAoBoEEDTVoEgdEIAABIpDAEETaEs8NIEAKQ4BCEAgI4EQQdOjRw83bNgwt3z5cte9e3e3aNGiyGszcuRIN2/evKgnFuN81VVXuT/96U9u06ZNbsaMGW78+PEZe9owOx6aYIRUAAEIQKABAQRN4KRA0AQCpDgEIACBjARCBM3ChQuj1ubOnRu9s0DvEtN+nPXr17sFCxa4lStXuunTp7vzzjvP3XLLLZG4Wbt2bXRN/+7atWvG3pZnR9AE4aMwBCAAgUQCCJrAiYGgCQRIcQhAAAIZCTRX0EyYMMHNmTPH9e7dO/K2rFmzxk2ePNl17NjRtWvXLhI5tt9Gmzd1NLREzsaNG93YsWPdrFmzgvfgIGgyGpvsEIAABFIQQNCkgNRYFgRNIECKQwACEMhIoLmCRocCZPHQKMxMIWnbtm2riodmyZIl7uyzz3ZHHnmku+OOO5zC30gQgAAEIBBOAEETyBBBEwiQ4hCAAAQyEggRNF26dHEDBw6MwshsD42/r0ZdSdpDo2shx4EiZjIamewQgAAEMhBA0GSAlZQVQRMIkOIQgAAEMhLIKmgyVh9lX7ZsWeSdUchZhw4dmlNFqQxiJggfhSEAAQg0SQBB0ySixjPoRT4KRzjqqKMCa6I4BCAAAQikIVBPggYxk8ai5IEABCAQRmDnzp3uySefdCeccEJYRTUqnfv30NRo3FQLAQhAAAIVCLSEoKkGfMRMNShSBwQgAIH6J4CgqX8bMgIIQAACVSVQD4IGMVNVk1MZBCAAgbomgKCpa/PReQhAAALVJyBB88Ybb1S/4irXyGlmVQZKdRCAAATqlEDuBc0999zjbr/99tJRoHXKmW5DAAIQqBsCnTt3dm+//bYbMWJE1fq82267papr165dTeabPXt29GLOoUOHcjRzk7TIAAEIQCCcwG9+8xt30UUXufvuuy+8shrUkHtBwylnNbA6VUIAAhBohMC//uu/ur///e/uscceyyWnbt26uQ0bNjj9gJEgAAEIQKD2BDjlLJAxgiYQIMUhAAEIZCSAoMkIjOwQgAAECk4AQRNoYARNIECKQwACEMhIAEGTERjZIQABCBScAIIm0MAImkCAFIcABCCQkQCCJiMwskMAAhAoOAEETaCBETSBACkOAQhAICMBBE1GYGSHAAQgUHACCJpAAyNoAgFSHAIQgEBGAgiajMDIDgEIQKDgBBA0gQZG0AQCpDgEIACBjAQQNBmBkR0CEIBAwQkgaAIN/Ktf/So683rSpEmBNVEcAhCAAATSEMi7oBk8eLCbN2+ea9euXZrhkAcCEIAABAIJbN682ekdYNdee21gTbUpnvv30NRm2NQKAQhAAAKVCORd0GA5CEAAAhCAgE8AQcN8gAAEIACBMgIIGiYEBCAAAQjUEwEETT1Zi75CAAIQaAECCJoWgEwTEIAABCBQNQK5FzRPPfWU00akgQMHVm3QVAQBCEAAApUJ5F3Q/Pd//7cbMWKE22effTAjBCAAAQi0AIEXX3zR/exnP3PnnntuC7SWvYncCxpOOctuVEpAAAIQCCGQd0HTrVs3t2HDBqcfMBIEIAABCNSeAKecBTJG0AQCpDgEIACBjAQQNBmBkR0CEIBAwQkgaAINjKAJBEhxCEAAAhkJIGgyAiM7BCAAgYITQNAEGhhBEwiQ4hCAAAQyEkDQZARGdghAAAIFJ4CgCTQwgiYQIMUhAAEIZCSAoMkIjOwQgAAECk4AQRNoYARNIECKQwACEMhIAEGTERjZIQABCBScAIIm0MAImkCAFIcABCCQkQCCJiOwjNlHjhwZlZg7d27Gkg2zv/76627YsGGud+/ebvz48aUMM2fOdJs3bw5qY9myZW7RokVuwYIFrkOHDol9tfaXL18efd6/f/8ov5L6NWTIEDdgwIDEsmvWrHGTJ0928+fPd4sXL3arV69u0FbIONS3iRMnukmTJrnrrrsuev1Dr169yvqyZcsWN3z4cDdlypQGn6U1jjhNnz7dLV261HXt2jVtsQb9UP/U3yRextl4ag7NmzcvOr68GvOoWZ3+v0KVGPrzR+M69NBDy+ZoSJtp5mZj9acpb3NP8yfJNtWYOyEMWrosgiaQOIImECDFIQABCGQkgKDJCCxj9pYQNBm71KzsWtBpoTdo0KDSQlWLQAmTWbNmubFjxzYqaHwhUEnQNKtj/1dIfenevXskENTXK6+8MhIevjiTqFI/1d+42EnbdksIGr8veVtIN8WwkuhOy7cW+dIIGrtPKwmaWvQrz3UiaAKtoxvh1VdfdR/84AcDa6I4BCAAAQikIZB3QfOb3/zG9ejRw+2xxx5phpO7PP5CSd6Bjh07uttuuy1afMsjsm3btjLPiOXXYlxeD3lDLK84mIfmnHPOiQTGCSecED0Nl4dGi7GkNrR416JO+VWX/m7Xrl3Z035/0XfTTTe5CRMmRCzNC7Ny5coGHhz9Zm/cuNF16dKlTNBIXFj5GTNmOOvr2rVrIy+D+nvvvfdG9d93330lz4M9Je/Xr1+pb/rc+iBxYt6KU089NSqvv3v27NlAwPgCR/l875I/JnuRd5L3wy/j20u26dy5c2Qbv2/+uP36rM/qhzw76q95ATp16hQJwQsuuKAkFK1d5VF+taMyvlcoqW+yg+9dSOJ52GGHRfwlRLdu3RoJ1D59+kR92LRpU6kd9TU+l+QdmjNnToNxK6/Nn+OPPz7yxBkvfVap7o997GPuiiuuiPJqnoir5oj+7Xsgm5qbvmitZDPzPqo/8ftK96DNgxtvvNHdcsst0X0lr5iNQ2zNu/fII4+U+NmcFhuJPRur7L99+/ZGPZ65+7LyOvTXv/7VPffcc+6f//mfc9nN3L9YM5fU6BQEIACBAhPIu6Cpd/TxJ7/m4YgLHYVBSbCMHj3ajRo1yi1cuDAauhZK5hVQeNell17qjjnmGPfYY4+VPCLxcJmkNmyh27dv32hBJ2Hlhy/ZonHatGlu3LhxUViWCSgt0lasWFHqT9wmfoiUPrOQLP3b2vWvy0OjhaMWmUrmNdFCUcJMgkaCSJ/7i3S/jueffz4avxa/SupffDzxa753wW/XF4rxUD4LjTNBp/Go3bgwUX3xRbPyxfusxf7UqVPdmDFjorewi3s8BM7nKSGTFCZn3jHNCeubbCfbWiibL2iMp8Ssri9ZsiQagwkX60NTc2no0KGJXi6bP+atU1ikhKzf93jdEg2yme6FdevWRf1J8t41NTf9sL0kLiYMxUps4veV2pVHT8k8NH7f7LovaIyf5qHmr8pL7Fk4qMZUz4Im79+7CJq8W4j+QQACEGhhAgia2gKvFMri7xdRHi3i9bReiyItjvwQLgs70qLUnpD7HoBK8f/+gtbf95G0VyW+B0JPp+Peh0r7dPwFuJ7y+/k0NnkE9KTb+uAvWnfs2FH25NsEjeVt3759aX+OL6ribcqKvhiReBGr2bNnl8LOfEET94wlMbG+x70FSX3TuM0rZTPKvFFxbha+l+SNUNk0giapb1ZvkqCJ29+Emjxs5lWwfktEXX/99ZHoiteVRdD4np80dZt4j+/lampu+ndwJZupznhopB/OZw8Q4iFn/r0V99BIINn8Pfvss508mxbOmCbMrbbfPMWuPfeC5p133nFvv/2223PPPYttCUYHAQhAICcE8i5o/v73v7u99947J7SydyONoNHiR4t1LfyVzj///LJN9nFB05SHJs2CNr7Iji/A/NAdeUEs9MY/NCAeGmUL47YqaJIEX5JQMuER4qGppqCxwxr8Qw4qiaOsgiZL3WkEjcLL4nPTF5wImuzfUUkldu3a5d566y231157VafCKteSe0HDoQBVtjjVQQACEGiCQN4FTbdu3dyGDRucfsDqMaURNCZYtIj45je/Ge1x8Q8TiIecKaxFT7/9U8NsD03SHgr/qXOakDOFtelJsxa4tkC0fTBNHQogG6UJOTMPQRYPjV93a4ScaVznnXdetMdCYUq+90h9s7AuP4TN90xZeJL4ygtn4U9xj0QaD008tEp9s5BEzQ8TxQotlPevkodG/P3DHqzeSuFrWQRNfM40VXdTgkZ9SpqbjYUJms20vswSchZ/KGD70xSaZ3tofA+NeU+LEnLGoQCBvzYImkCAFIcABCCQkQCCJiOwjNnTCBpV6S9Q40+hkw4F0CLO6vYPBUgSNLZQTHsogPZk2CZpP+zMD5VSnysd2xw/FEB9tQ3TWlzbpnR/QWgLxcZCzrRXotKhALYPx7wMFsbn76+w/mtDv+09aexQAI0xvqHfF1W+oFE7lQ4FqHRIghbNJjD9o7jTCJqkvvl98A9/aEzQaK75m9nt8AHV35g4Noa2IT8eFiaPo+2RSjoUoLF52ljIWaW56d+WSTZr7FAA21ckUWKHAmQVNJq/SvVwKIBErOZuYwlBk/GLPp4dQRMIkOIQgAAEMhJA0GQEVufZ83isbnOQxo8PTnNsc3PaoQwEmkOgmse1N6f9xsroocHJJ5/svvKVr0QHgCQlBE0gdQRNIECKQwACEMhIAEGTEVgdZq/kWan0As28DtGOnrb++cf7aozmpVE4l7wSlV7ymdfx0a/6JRB/6Wz8mO08jUyCRh48pUMOOSRR2CBoAi2GoAkESHEIQAACGQkgaDICIzsEIACBOibgCxobRlzYIGgCDYygCQRIcQhAAAIZCeRd0HzgAx9wv/zlL90BBxyQcWRkhwAEIACBOIFnnnkmesdUUjJho5A0vRProYceyiVATjnLpVnoFAQgAIHWI5B3QXPggQe63XffPfqPBAEIQAACYQT0epSXX3650Uo+9KEPRa9Q+e1vfxvWWI1KI2hqBJZqIQABCNQrgbwLmno/trle5wX9hgAEikkgKeTMRnr00UdHe2qOO+44PDQh5te7Bn7+85+7L3/5yyHVUBYCEIAABFISyLugGTVqVHQc7n777ZdyRGSDAAQgAIFKBJIEjQmZ//qv/4qK/eEPf3C33nqrs+Oo80Yz9x6avAGjPxCAAASKTiDvgqbo/BkfBCAAgZYk4AuauJBpyX6EtIWgCaFHWQhAAAIFJICgKaBRGRIEIACBCgQkaM4666wotMw8MvUGC0FTbxajvxCAAARqTABBU2PAVA8BCEAgRwTefPNNt9dee+WoR9m7kntB8/jjj7u1a9e6oUOHZh8dJSAAAQhAIDOBvAsaxXCPHz/e7bvvvpnHRgEIQAACEMhO4IUXXnBLly51Y8aMyV64BUrkXtDwHpoWmAU0AQEIQMAjkHdBwylnTFcIQAACLUuAF2sG8kbQBAKkOAQgAIGMBBA0GYGRHQIQgEDBCSBoAg2MoAkESHEIQAACGQkgaDICIzsEIACBglSHFF4AACAASURBVBNA0AQaGEETCJDiEIAABDISQNBkBEZ2CEAAAgUngKAJNDCCJhAgxSEAAQhkJICgyQiM7BCAAAQKTgBBE2hgBE0gQIpDAAIQyEgAQZMRGNkhAAEIFJwAgibQwAiaQIAUhwAEIJCRAIImIzCyQwACECg4AQRNoIERNIEAKQ4BCEAgIwEETUZgZIcABCBQcAIImkAD/+Uvf3FvvPGGO+iggwJrojgEIAABCKQhkHdB84c//MF17drV7b777mmGQx4IQAACEAgk8Oabb7o//vGPrnPnzoE11aZ47l+sWZthUysEIAABCFQikHdBg+UgAAEIQAACPgEEDfMBAhCAAATKCCBomBAQgAAEIFBPBHIvaP7+97+7v/3tb65Dhw71xJW+QgACEKhbAnkXNAp7eN/73kfIWd3OMDoOAQjUG4F//OMfbseOHe69731vLruee0HDoQC5nDd0CgIQKDCBvAuabt26uQ0bNjj9gJEgAAEIQKD2BDgUIJAxgiYQIMUhAAEIZCSAoMkIjOyFILBlyxY3cOBAt3bt2gbjWbp0qRswYEDQOGfOnBlFnKxfv94tX768rK4RI0a4uXPnNqj/9ddfd8OGDXNDhgwJbj+o8xRu8wQQNIFTAEETCJDiEIAABDISQNBkBEb2whFYtmyZW7RokVuwYEFVQt4lTEaPHu2GDh3q5syZ43r37u3Gjx/fJDcETZOIyNBCBBA0gaARNIEAKQ4BCEAgIwEETUZgZC8cgbigkXdl9erVbuvWra5fv35uxYoVbuLEiZHXRJ9t3rw58rCsWbMm8qZs2rTJ9ezZ08mzoyPG5f258sor3aRJk9zYsWMTBY2JF/Pe9O/f382aNSvKrzpVn+9BMq9RpTYLZxQG1KoEEDSB+BE0gQApDgEIQCAjAQRNRmBkLxyBJEGzZMmSSKAoSVjEBY3EyvDhw92UKVNcr169yoSO6pMImj59ehRC5oecmfDRhmulI488MhJAqmvChAmRR8dEkgkn69+0adPcuHHjEtssnFEYUKsSQNAE4kfQBAKkOAQgAIGMBBA0GYGRvXAEKnloFIIm4ZEkaBROZsLDgJhYkXdGnp2+fftGgqZSyJnvpenevXvk9TFB06lTp1L9Sd6ZeJvyDJEgUC0CCJpAkgiaQIAUhwAEIJCRAIImIzCyF45AcwXN5MmT3fz586MwM0vytihsTOFj7du3ryho1KaEksSKhFDcQ2OHElg+5ZFX6IYbbmjQZuEMwoBanQCCJtAECJpAgBSHAAQgkJEAgiYjMLIXjkBjgkaDNS/L+eefH/27Y8eOkbiQIBk0aFC04d/23YwaNcotXLjQzZ49O+JUyUPjt7ly5coo3Mz30GhfjpLq1r4ZiaepU6e6MWPGNGizWocZFM6wDKjZBBA0zUb3vwV/85vfuF/84hfuS1/6UmBNFIcABCAAgTQE8i5otHdBi7l3v/vdFYfzgx/8INqwveeee6YZMnkgUEagMUGjF31LrEhwKCxM+2XatWtX8VCAxYsXl4SIhZQlhZz5x0YPHjzY7dy5s+SxUSibhavZ/hsOBWDStiSB559/3n3ve9+L5n0eU+5frJlHaPQJAhCAQJEJ5F3QNMZeQubaa691v/rVr9ybb76JoCnyRGVsEIAABP6PAIKGqQABCEAAAmUE6lHQ+ELGBoOgYWJDAAIQaBsEEDRtw86MEgIQgEBqAvUkaJKEDIImtanJCAEIQKAQBHIvaLQJSS+zGjFiRCGAMwgIQAACeSeQd0GjTdEf/vCHo9OdFFpWKZmH5o477nC7du0qZTviiCPcMcccU1bszjvvjELULGlvxEc+8pGyPD/5yU/cX/7yl9K1D3zgA+6jH/1oWR4dZGPvE9EHnTt3dn369CnLo/eRvPrqq6VrBx10kPvkJz9ZlueBBx5wL730Uuna+973PnfqqaeW5Xn44YfdCy+8ULqmvR2f/vSny/Jo8/hzzz1Xurbffvu5f/u3fyvLs3bt2ujFkJb23ntvp5c6+mnDhg3u97//fenSHnvs4T772c+W5fntb3/rfve735VdO/vss91uu+1WuvbEE0+4xx57rCxPfK/T008/7datW1eW59///d/L9kw9++yz7pe//GVZns985jPRKWKWFPO/atWqsjw6Ovm9731v6dr27dvdz3/+87I8J598svunf/qn0rWXX37ZaZO+n0466SR38MEHly699tpr7p577inLo701hxxySOnan//8Z/fTn/60LI9OKjv00ENL1/7+97+XvaNGHxx33HHuQx/6UCnP22+/7X74wx+W1XPUUUdF76/xU5p5r71Cb731VqnYYYcd5k444YSyen784x+7v/71r6Vr3bp1cyeeeGJZnp/97GfujTfeKF3r0qWL+9jHPlaW595773V/+tOfStd0kMInPvGJsjz333+/++Mf/1i6duCBB0Z7h/z00EMPuW3btpUuHXDAAe60004ry6N1o/YkWdIepzPOOKMsT7XmvfZ6b9y4sazu+Lx//PHHndazforP+6eeesqtX7++LM+ZZ57p9t1339K1Z555psF33umnn+7233//Uh6NW+P306c+9SmnBb8l8RNHP51yyinu/e9/f+lSfN6/8sorTveUjiDPY8q9oOGUszxOG/oEAQgUmUDeBY0WS1qc3HTTTY2awQSNTpnSItCSftx1GpWfLrroojKxooXWF77whbI8OozAX5BpUaejdf10+eWXly22jj32WDdy5MiyPFdddZXTgtzSv/zLv7gvf/nLZXm0D+jJJ58sXdOi95JLLinLI0HnL5IknnRYgp9uvfXWsgWQhFF8QXLbbbc5iSNLWvxdc801ZfXopZL33Xdf6ZoOW7BTu+yiFr533XVXWTmd0rX77ruXrmnRr0W0n7797W+XiRUJDG0+9pNeSOkvyHRY0He+852yPFdccUV02pglibB58+aV5dFJZBKilrQQve6668ryfPWrXy0TEBJ73/rWt8ryXHjhhe7oo48uXdu6dWv0cks/nXfeedHxy5a0QLz00kvL8mizvy94JQouvvjisjxaHPuLes1rnWzmJy184wt2zbt33nmnlE2Lfjv62S5q3vliRcL685//fFndmncSbJYk1HRSm58071588cXSpeOPP95dcMEFZXn0ElBfXPfo0SN6KaifNO984awHC/FN6Jp3EhGW9H3wjW98o6yem2++2f36178uXdNCXSfC+Uknz/mCV2JYhz34SaLQF7N77bWXu/7668vy/OhHP3ISdH7SvPOF/N133+300MRPmnf77LNP6ZIeYtgBEnZxxowZTg8qLEmofPe73y2rR/NOD0UsSRTdeOONZXk073xxrQcPOkbcT5p3hx9+eOmSHiz4PPQQRvdC/GFDWSWt+AeCphXh0zQEIACBPBLIu6DRE2ItVnVilBb+8QWGMWUPTR5nF32CAATqkQDHNgdaDQ9NIECKQwACEMhIoF4EjT2xl7cjSdggaDIanuwQgAAEKhBA0ARODQRNIECKQwACEMhIoN4EjQ1PwkYhKxYKhaDJaHiyQwACEEDQ1GYOIGhqw5VaIQABCFQiUK+CJi5s5LXhxZrMcwhAAALhBPDQBDJE0AQCpDgEIACBjATqXdBkHC7ZIQABCECgCQIImsApgqAJBEhxCEAAAhkJIGgyAiM7BCAAgYITQNAEGhhBEwiQ4hCAAAQyEkDQZARGdghAAAIFJ4CgCTSwNnXqRVP+S4MCq6Q4BCAAAQg0QiDvgkbvgtHL9Pz3PGBQCEAAAhCoHYF//OMfTi+H9d+LU7vWstec+/fQZB8SJSAAAQhAIIRA3gVNyNgoCwEIQAACxSOAoCmeTRkRBCAAgSACCJogfBSGAAQgAIEWJpB7QSP3lt4GffDBB7cwGpqDAAQg0DYJ5F3QbNq0yXXr1s3tsccebdNAjBoCEIBACxPQ9o8XX3zRHXLIIS3ccrrmci9oOBQgnSHJBQEIQKBaBPIuaCRmNmzY4PQDRoIABCAAgdoT4FCAQMYImkCAFIcABCCQkQCCJiMwskMAAhAoOAEETaCBETSBACkOAQhAICMBBE1GYGSHAAQgUHACCJpAAyNoAgFSHAIQgEBGAgiajMDIDgEIQKDgBBA0gQZG0AQCpDgEIACBjAQQNBmBkR0CEIBAwQkgaAINjKAJBEhxCEAAAhkJIGgyAiM7BCAAgYITQNAEGhhBEwiQ4hCAAAQyEkDQZARGdghAAAIFJ4CgCTQwgiYQIMUhAAEIZCSAoMkIrAWzL1u2zE2fPt0tXbrUde3aNbjlpPq2bNnihg8f7qZMmeJ69erVrDb0/rhhw4a5IUOGuAEDBlSsQ+0PHDiw9Hn//v3dggULXIcOHZrVrl9IfZg4caKbNGmSu+6666J24uOpxlirYRP1Q/1Tf5N4xXmOHDnSzZs3z40YMcLNnTs3mFVIBZUYisuiRYsie2pchx56qBs/fnxIU6Wyft3VmCtV6VTBK0HQBBr4iSeecOvWrXP/+Z//GVgTxSEAAQhAIA2BvAuaK6+80l100UVu3333TTOcQuWpxuLZB1Lt+rLAVtsTJkyIFr0mNLRQV6rGIn3mzJmue/fukUDQolvzRmLQXwCvWbPGjR071s2aNavZ4q0aDJsSND7XaoiwLHZqKm9TDE2M9e7du2qCpqk+8Xn1CWzbts3deeedbtSoUdWvvAo15v7FmlUYI1VAAAIQgEAGAnkXNBmGUris/uJ58eLFbvXq1W7r1q1u7dq10dN6Ldh9z4i/2NSCxLwh9mQ/Xt+NN97orr76anfDDTdEHppHHnmkQRsSG6pX3pdNmzZF7W7fvr3Ms+J7FDp16lTKK4EhAdOjR49ED47qnTNnjps9e7bbsWNH1F+NzcpJ+MS9OvJW9ezZM/IqdezY0T355JPu+uuvj/rjCxhf4GhiWB+XL1/uzDN00003RSJLacaMGQ0W4H4Z65O4qp3OnTs7vy4JJ7Vp9fneFPOwqB3rv3lojNcFF1xQat/aVR7lVzsas++pS+pbly5dyjw/6s/mzZtdv379SqLxsMMOi7wnNpcGDRrk+vTpU7KZtaO+GuPbbrstsonmguwVH7fymhfl+OOPd5MnTy7ZUJ/Z3InX/bGPfcxdccUVUV7xF1fZP24L30Pj2yzJwxe3886dO0veR98O1oY/t20enH/++dF81fxasWJFmQgv3JdMnQ4IQVOnhqPbEIAABGpFAEFTK7Lh9cYFyJIlS6JF7fPPP1/yNEiEaNGqxabyawE2dOjQ0ucmJvTEXAtHLRrPPfdcd++990YiQELCQs5UV7wNeTq0iLUn7loUNiZo1L6FG9mCWmFgjYW1xUOs/AXsypUrS2FZfn1a7GsxrrAmG7fv6Um6Fhd8Fs4nSyWFgKk9LfzFSf2QOFM+LdDjwkR1WMiV/m1CU/+2dmQ3LfanTp3qxowZE9lB/YyH+/k8TLzF8yT1bdq0aVG7FsrmCxrfO6brZmcTLlZ/JcbmTfPnlh/SZzaT90teMM2Xc845p8zu8bpPOOGEaN6qbkXniKkJdz8U0erW+MaNGxfxqiSS41xs3P594nu93njjDXfiiSdGnrz4GCRoquE9DP8moIY4AQQNcwICEIAABMoIIGjyOyGSPDRxEaLem5dDC1k9jfcX1+Y5sCf1WpD7HhB/cWceGr+Ns88+2+mpuIVpJe1n8BfgJg4qtaFFsP9UXPnkJZJw0tN5S5W8NPJ8SCD5AkSLWCV/z4bv/bGwM1/Q+AtcldWiOr7vI+mab5P27duXhIu8V+adsTGor6rTBKddt5CzJG+E8qQRNEl9i4ey+YLG34vlL/o3btxY8qBY/ySi5PWS6IqLoyyCxvf8pKnbRLkJQ7NbfH+O9hM15p0x8e3P7YULF0b7kPyU5KVRvb4oq9Y+oPx+y9Rnz3IvaNavX+8efPBB95WvfKU+CdNrCEAAAnVGIO+CRqE41157rdtvv/3qjGx4d9MIGj2pHj16tDvrrLMiD4EWY1oo+4vC+MK2MQ+NeSTMc5NV0Ngmdwu/8heI8UMDbMF54YUXlsLe/Kf+trAXSYksCSuJg7wKmrhwUb+Nvf+k34RHiIemmoJGXqP58+eXHTxRSRxlFTRZ6k4jaCRy/LAyPzwtvn8nLmiSDirwvUN23yBonHv22WfdzTff7OQVy2PKvaDhlLM8Thv6BAEIFJlA3gVNt27d3IYNG5x+wNpaSiNoJAC0aL7nnnvc4YcfHoXI+J6IpJAzhfbII6IFnh8WlOShkdcha8iZvEQSNvHQsfihAHZQgO3NsBAfG7dEzKWXXhp5EPr27Vva1xAXNC0VciYvx3nnneduueWWKDzK99Bobtr4KjG3UEGNSfzl/VCKeyTSeGjioVXqm/GSh8LfByJ7VPLQ2N4lC9+zeiuFr2URNJpbfmhgU3U3JWjUJ7GT4NCpf0mirrGQMz/Mzjx8foikhVMiaJzjlLPAXxsETSBAikMAAhDISABBkxFYC2ZPK2iSTs3yN9MnHQrgL67jhwIkhbWlPRRA4UpJm/uFLb4BOx6WllTOPD3KO3jwYPfYY49FT439vSIav51eZsdba3FqwspMZpy0od88Po0dCqBy8Q39umbiwBc0EnCVDgXwr8ujYAt9CRoTav6pYGkETVLf/D6Il8Ruu3btIg6VBI08Hr5d/I378bA+3ztmDCuFhdlmevUz6VCApLqbEjS2l8kOu6jGoQD+fXLZZZe5VatWRcd+Szi15ZPaEDSBX/QImkCAFIcABCCQkQCCJiOwNp69mkctVxNlmmObq9kedeWfQDWO2M7/KLP3UMJU98tXv/pVp1PvkhKCJjvXshIImkCAFIcABCCQkQCCJiOwNpbd36+gocePD84LDt9Lo3CuuHcmL/2kH7Ul4HvD1JJCAxt72Wtte5PP2iVo5MFT0gMK7VuPCxsETaDtEDSBACkOAQhAICMBBE1GYGSHAAQgUMcEfEFjw4gLGwRNoIERNIEAKQ4BCEAgIwEETUZgZIcABCBQxwSSBE1c2PzlL3+JTk986KGHcjlSTjnLpVnoFAQgAIHWI5B3QXPggQe6k046ye21116tB4mWIQABCBSEwJ///Gd31113NToaHdeudyv9+te/zuWoETS5NAudggAEINB6BPIuaA466KDo2GCd1kSCAAQgAIEwAtu2bXN6B1Kl9NnPftadeeaZ0Xto8NA0k/WuXbuc/tt9992bWQPFIAABCEAgC4G8C5q3337b7bHHHlmGRF4IQAACEKhAoFLImYSMDgjQcd9ai7/zzju5/e7NvYeG2QcBCEAAAi1LIO+CpmVp0BoEIACBYhOICxpfyNTLyBE09WIp+gkBCECghQggaFoINM1AAAIQyAEBEzT1KGQMX+4FzWuvveZefvnlii/6ycE8oAsQgAAECkUg74Lm0UcfdUcddZR717veVSjuDAYCEIBAaxCQoHnxxRej0LJKSaecPfvss65Hjx6t0cUm28y9oOHY5iZtSAYIQAACVSWQd0HTrVs3t2HDBqcfMBIEIAABCNSeAO+hCWSMoAkESHEIQAACGQkgaDICIzsEIACBghNA0AQaGEETCJDiEIAABDISQNBkBEZ2CEAAAgUngKAJNDCCJhAgxSEAAQhkJICgyQiM7BCAAAQKTgBBE2hgBE0gQIpDAAIQyEgAQZMRGNkhAAEIFJwAgibQwAiaQIAUhwAEIJCRAIImIzCyQwACECg4AQRNoIERNIEAKQ4BCEAgIwEETUZgZIcABCBQcAIImkADI2gCAVIcAhCAQEYCCJqMwMgOAQhAoOAEEDSBBt60aZMTxLPOOiuwJopDAAIQgEAaAnkXNLNnz3bnnXee22effdIMhzwQgAAEIBBI4KWXXnJ33323Gzp0aGBNtSme+xdr1mbY1AoBCEAAApUI5F3QYDkIQAACEICATwBBw3yAAAQgAIEyAggaJgQEIAABCNQTAQRNPVmLvkIAAhBoAQIImhaATBMQgAAEIFA1ArkXNL/85S/dvffe677xjW9UbdBUBAEIQAAClQnkXdB8/vOfdzfffLNr164dZoQABCAAgRYgoD3ts2bNctddd10LtJa9idwLGk45y25USkAAAhAIIZB3QdOtWze3YcMGpx8wEgQgAAEI1J4Ap5wFMkbQBAKkOAQgAIGMBBA0GYGRvRAEtmzZ4gYOHOjWrl3bYDxLly51AwYMCBrnzJkz3d/+9je3fv16t3z58rK6RowY4ebOndug/tdff90NGzbMDRkyJLj9oM5TuM0TQNAETgEETSBAikMAAhDISABBkxEY2QtHYNmyZW7RokVuwYIFrkOHDsHjkzAZPXp0dOTtnDlzXO/evd348eObrBdB0yQiMrQQAQRNIGgETSBAikMAAhDISABBkxEY2QtHIC5o5F1ZvXq127p1q+vXr59bsWKFmzhxYuQ10WebN2+OPCxr1qyJvCnab9CzZ08nz07Xrl2dvD9XXnmlmzRpkhs7dmyioDHxYt6b/v37R3sWlF91qj7fg2Reo0ptFs4oDKhVCSBoAvEjaAIBUhwCEIBARgIImozAyF44AkmCZsmSJZFAUZKwiAsaiZXhw4e7KVOmuF69epUJHdUnETR9+vQohMwPOTPhs2PHjqjuI488MhJAqmvChAmRR8dEkgkn69+0adPcuHHjEtssnFEYUKsSQNAE4kfQBAKkOAQgAIGMBBA0GYGRvXAEKnloFIIm4ZEkaBROZsLDgJhYkXdGnp2+fftGgqZSyJnvpenevXvk9TFB06lTp1L9Sd6ZeJvyDJEgUC0CCJpAkgiaQIAUhwAEIJCRAIImIzCyF45AcwXN5MmT3fz586MwM0vytihsTOFj7du3ryho1KaEksSKhFDcQ2OHElg+5ZFX6IYbbmjQZuEMwoBanQCCJtAEegfN97//ffed73wnsCaKQwACEIBAGgJ5FzQKyVm1apU74IAD0gyHPBDITKAxQaPKzMty/vnnR//u2LFjJC4kSAYNGhRt+Ld9N6NGjXILFy50s2fPjvpRyUPjt7ly5coo3Mz30GhfjpLq1r4ZiaepU6e6MWPGNGizWocZZAZHgcIS+O1vf+suvvhid/fdd+dyjLl/D00uqdEpCEAAAgUmkHdBkwb9n//8Z7fffvulyUoeCDQg0Jig0alnEisSHAoL034ZveS10qEAixcvLgkRCylLCjnzj40ePHiw27lzZ8ljo1A2C1ez/TccCsDEhcD/TwBBw2yAAAQgAIEyAvUsaCRkrr322ui/l156ye25555YFwIQgAAECk4AQVNwAzM8CEAAAlkJ1KOg8YXMa6+9Fg35zTffRNBkNT75IQABCNQhgdwLmpdffjk69/2YY46pQ7x0GQIQgED9Eci7oHnooYeiMB95XxSWYx4ZhfP4CUFTf3OPHkMAAvkk8MYbb7jHH3/c6fchjyn3goZTzvI4begTBCBQZAJ5FzTdunVzjzzySHSyk8RMXMiYbUzQvP3222Xm2n333d1uu+1Wdu2dd95xu3btKl3T58rnp7acR2w0fj/tscceZX/XQ5647ZP63Jw8ApFmnuUtT1ue02nGXg9zOs192Jw5HR/7b37zm+i0Pj1QymNC0OTRKvQJAhCAQCsSyLugOfDAA6NN2H/4wx8apWSC5qCDDnJvvfVWKa9OhbriiivKyh566KHOQtX0gY7Mvfrqq8vyfPjDH44iBiydffbZbt68eWV55Dl68sknS9fOOOMMt2jRorI8p556qlu/fn3p2ic/+UmnTeh++o//+A/38MMPly7piN577rmnLM8XvvCFshOHevToEQk9P33pS18qvQxS1w855BD36KOPluW56KKL3He/+93Stfe9733uqaeeKsvz9a9/PXofiqV99tnHvfDCC2V5rrrqqmizvJ+0j+ld73pX6ZKOLr788svL8jzzzDNOG+0tSajqNCU/6YSlgw8+uHTpBz/4gRs5cmRZnl/+8pfu8MMPL1376U9/6vRuGD/df//97thjjy1deuCBB6KN93768Y9/7Pr06VO69Ktf/cp9+tOfLsuj01dPO+200rWNGzeWldEHt9xyi7OjlvW35utxxx1XVs91110XvVvGkqJSPvShD5Xl0csz/bH+9a9/dZ07dy7LoxPW4sze//73l4ksvYDzsssuKyunhwP2Qk99cN5557kZM2aU5dGpgtu2bStd+/znPx8dFe0nfWc8/fTTpUv//u//Xjan9MEpp5xSNvf09w9/+MOyelROJxhaOvHEE50ebPvpnHPOcToB19JRRx3VYJH9xS9+0d15552lPB/84AfdunXryuoRD//eFC//3lVmcfXv8Xe/+93u+eefb2Cfa665puzaK6+8UvbQ5L//+7+jl5/6SfNh//33L126+eab3SWXXFKWR/NKJ+hZ0ry78MILy/KsXbs2OpzCkuavTtLz04MPPuiOPvro0iWdoqfT+Px01113RZ5vS7/4xS/c6aefXvpbYlzfHxI2eUwImjxahT5BAAIQaEUCeRc0WoRt2LDB3X777ZGHRgvipETIWStOIpqGAAQKRYD30ASak5CzQIAUhwAEIJCRQL0IGj2RU9L7PZKEDYImo+HJDgEIQKACAQRN4NRA0AQCpDgEIACBjATqTdDY8OLCBkGT0fBkhwAEIICgqc0cQNDUhiu1QgACEKhEoF4FTVzYKB6e99AwzyEAAQiEE8BDE8gQQRMIkOIQgAAEMhKod0GTcbhkhwAEIACBJgggaAKnCIImECDFIQABCGQkgKDJCIzsEIAABApOAEETaGAda6ewgU996lOBNVEcAhCAAATSEMi7oFm4cKH73Oc+5/bee+80wyEPBCAAAQgEEtCR4noHjX8UeWCVVS2e+2ObqzpaKoMABCAAgSYJ5F3QNDkAMkAAAhCAQJsigKBpU+ZmsBCAAASaJoCgaZoROSAAAQhAID8EEDT5sQU9gQAEIJALAgiaXJiBTkAAAhCAQEoCm5ycJQAAIABJREFUuRc0q1atcj/96U/dVVddlXJIZIMABCAAgRACeRc0Z5xxhlu8eLHbf//9Q4ZJWQhAAAIQSEng97//vfvWt77lbr311pQlWjZb7gUNp5y17ISgNQhAAAJ5FzTdunVzGzZscPoBI0EAAhCAQO0JcMpZIGMETSBAikMAAhDISABBkxEY2SEAAQgUnACCJtDACJpAgBSHAAQgkJEAgiYjMLJDAAIQKDgBBE2ggRE0gQApDgEIQCAjAQRNRmBkhwAEIFBwAgiaQAMjaAIBUhwCEIBARgIImozAyA4BCECg4AQQNIEGRtAEAqQ4BCAAgYwEEDQZgZEdAhCAQMEJIGgCDYygCQRIcQhAAAIZCSBoMgIjOwQgAIGCE0DQBBr4gQcecD/84Q/dDTfcEFgTxSEAAQhAIA2BvAuaXr16ubvvvtt16NAhzXDIAwEIQAACgQQef/xx941vfCNak+cx5f49NHmERp8gAAEIFJlA3gVNXtivWbPGjR071s2aNctJZIWmLVu2uIEDB7qJEye6AQMGRNW9/vrrbtiwYW7IkCGla81pZ+bMmW7z5s1u7ty5icWtneXLl0efd+/e3S1atCjTuEaOHOnmzZvnTjvtNLfvvvu6BQsW1Ex0xsezbNkyt2nTpqjf+v/48eMbjFP9O/TQQxM/S8PUGPXu3bvZdagd9X316tUV+WgsYi9+K1eujOZEz5493dKlS13Xrl3TdLVmeZLmkT9HO3Xq5CZPnuzmz59flb5Wa/77QMRXTC2NGDGi4n2RBFL3ve7Hd955JxrjuHHjgu7NxoxVi/HXbHK0csUImlY2AM1DAAIQyBsBBE06i7SEoEnXk/Bc8UW2/l6yZEnqRbTE2PDhw92UKVPctm3bSgvyWnnR/IW12r7yyivd9OnTIwF18cUXRwtWX2RWQ4xUo440gsa3ZqgIC58Z5TWoP0qVhLHEguyQB/GVNPb4QwP7e9CgQalFqs09jbMaDxsQNNWZpQia6nCkFghAAAKFIYCgSWdKX9BoEW+LvPvuu8/1798/esIub4t5BfzFlJ64a9G9du3a0tN3tWoeGj3p1lPg//qv/3Lr16+P/u0vJP02dF0LK3lX1O7OnTsjYeEv6G0RNmnSpFK7KqeFp7xBlRaq8UW8eQ/klZJ3qmPHju6ee+6JnlQ/9NBD0VjOO++8SAwp+f2U2PCfjtuT8bh3yNjddNNNkSdj69atTgtOeV/ER//X2Nq1axcx19h0zbxasovGdfXVV5cMqTwTJkwoeZ66dOnSgH/c+xHvqy1g1a7akCfI+JltZU/fu5U0Xl88an6sW7euTAAY4+OPPz7ydvh2sgFV6pt5j5LstGLFCvfFL37R3X///VE1hx12mPPng/W7R48e0XySbeVxs/Ztfsb7Y/b7zGc+42655ZZoTpttzWunMjNmzIhEg8av/Riap5qzyqt7RPaJe6Li3h/dB+aJS/Igxr0vZh/j1thDiLjYsXumX79+pXt7jz32iOa7ku4x3ZtxTpqH/pz254N5dzQGY3LOOedEDwNUz5NPPhnNBQl0sT/11FOjfOJo8zvdt1Pby5V7QaMfiWeffTaT27vtmZERQwACEKgegbwLmp/+9KfuU5/6lNtrr72qN+hm1BQXNFqQaZFli2UtVpUsfGjjxo1uzpw50WJFYsAWn7bAnTZtWrSQPPfcc6OFvxZMtrg0QZPUhhZHFsKkECXLkyRotHC00DM/tGnHjh2JC/w0gkaiIu6hkfDQwqxv377RmDTWPn36lEL0bFy6fvrpp0ecjjzyyLJ6HnnkkZKXyBbTYmp1agEokTF69Gg3atSo0jpBfbFQQBMp/jjOP//8Up9sgR0PAfMXt9aejUl9kVg1wWXizsICjavZ0++zLcjV3jHHHONefPHFBt4O3y6+ILYp2ljfGhM0spPqtvnhzy0tlpNEkAlG42Nz2vfQ+KJDfTQPzeLFi0tzzZ8fsuuNN94Y3RdKYnLBBRc4LewbC7mUILOHA5VCKDUGW/hXymPi1hdZ+ndjgsa/p+IeGpsPuvds7LrHlYy5Xdc+lBNPPDHyJMbniXmJfC/X888/H/GRGGxtQfPaa69FAu6UU05pxrdl7YvkXtBwylntJwEtQAACEPAJ5F3QdOvWzW3YsMHpB6w1U1zQ2KKlffv2pVAUPXG2xbUWeEr2RNa8KKpHT+KnTp3qxowZEz3htqfZlRaL1oYtsm0h6y8ckwTN0KFDowWS712IM7QFnzwltlivtFBOalcPIv2wI/9Jt4k7Lej8BWfSE20tfH2hllSnPAxJ4iUucnxBU4m/v+/DbOJfqyTuTLjIbpb0VP6SSy5xd9xxR4P9JMa30r6YpgRNlr4l2c84mkiM91uLcAnvuM3N42gLdRtrpTlqXgZ/fmleK5ldJaQtVDEusJQvXrd56Brb35XkFUv6nvC9ahLf5jW1PWz+vE2ae+axi98DEj/iZwI3fk/6XhrdY77wjXtL87SHhlPOAn9tEDSBACkOAQhAICMBBE06YGkEjS1QtOi59957I0+CPDi2iJPoiAuaxjw0cdGUVdDYk3Vb9FVaVNsizBZntRQ0Cumxcag/xqaeBI02hsfD/JKEh2aWeeSa66GppqDx52FcoFRD0CQdwuCH3GURNL7nRfPSQhNtn5Yt/jUO86A1dhCGjTcejllLQbNw4cJSiKGEpIQZgibd921TufDQNEWIzyEAAQi0MQIImnQGTytoJB6uuuoqd8QRR7jZs2dHlVsYlh/y5C9slEeLHT+cSdeSvEBZQ85Uj9q1hfF1113nLr300iiG3wSPH7blh88oln/79u0NPDchIWe2x8BO9bLwHl/QWEhca4acaU+LQm7ShHXJTtdff33kcfP7rLLmoYiHqtmsa8pDkxRypnq1eFeSDSvZyQ9nMi+f2d0+kx00H0IFjTySdrCE+mXhZP58zSJoFHIm8euHx/kn6fneDD8s0Q+P80PuzIMpQaPkhyLav8VGbTbmoTEBlSbkTPeSiTyzUVzQ5DXkDA9Nut+Firnw0AQCpDgEIACBjAQQNOmApRU0Sadj+eEu5iXxF322ILNFtO2hSRI0ljfNoQAWJmPHMydtalc/GtvYnkbQqJ3OnTuXDiqwhWdSOJDPYvDgwdFmcX+vSbxs0qEAJtL0f7WhxW/8JC4tIHXd3+fkH8oQPxQgHhpUKfxO/fP3IFXaBB4/7MAEXPxUsKYEjcYY75t/xLM+10b7JDvFTyFLOszA398k4ev3R/uGJDj9zfZJG/dtI32lQwGaE3LmH6RR6Vhx//AHzaXHHnuswfHY/h4aY2VzxS9vB080JWiSDomodCiAP/8vu+wyt2rVqlKoqX9cu3FrqUMBJIa1v+eMM86o+OWHoEn3u4CgCeREcQhAAALVIoCgqRbJlq8nvmBt+R60fItpjm1u+V7RIgTqh4AEjUSiNvx/5StfSRQ2CJpAe+KhCQRIcQhAAAIZCSBoMgJr5ezxJ87xo2pbuXst0ryFDWlRluSdaZFO0AgE6pSACRrrfpKwQdAEGhdBEwiQ4hCAAAQyEkDQZARGdghAAAJ1TCAuaJKEDYIm0MAImkCAFIcABCCQkUDeBc373//+6F0u++23X8aRkR0CEIAABOIEXnrpJXfRRRdVBCOPjQ5j+MEPfhC9QDePKfennL3wwgvRyR16IRcJAhCAAARqTyDvgkYnR7311ltu9913rz0MWoAABCBQcAI61OL222+vOMp99903OnL+2GOPdTpsIY8p94Imj9DoEwQgAIEiE8i7oCkye8YGAQhAoKUJVAo5k5DRIQH6773vfW9LdytTewiaTLjIDAEIQKD4BBA0xbcxI4QABCBgBOKCpp6EjI0BQcN8hgAEIACBMgIIGiYEBCAAgbZDwARNPQqZuhE0Dz74YPRSJ73QigQBCEAAArUnkHdBc9JJJ7m77rrL6U3nJAhAAAIQCCMgQTN//vxGQ8v04s3LL788Ohggjyn3HhpOOcvjtKFPEIBAkQnkXdB069bNbdiwwekHjAQBCEAAArUnwLHNgYwRNIEAKQ4BCEAgIwEETUZgZIcABCBQcAIImkADI2gCAVIcAhCAQEYCCJqMwMgOAQhAoOAEEDSBBkbQBAKkOAQgAIGMBBA0GYGRHQIQgEDBCSBoAg2MoAkESHEIQAACGQkgaDICIzsEIACBghNA0AQaGEETCJDiEIAABDISQNBkBEZ2CEAAAgUngKAJNDCCJhAgxSEAAQhkJICgyQiM7BCAAAQKTgBBE2jghx9+2P3kJz9xM2bMCKyJ4hCAAAQgkIZA3gXNaaed5pYsWcJ7aNIYkzwQgAAEqkDg97//vbvyyivdggULqlBb9avI/Xtoqj9kaoQABCAAgcYI5F3QYD0IQAACEICATwBBw3yAAAQgAIEyAggaJgQEIAABCNQTAQRNPVmLvkIAAhBoAQIImhaATBMQgAAEIFA1ArkXNM8995x76qmnXN++fas2aCqCAAQgAIHKBPIuaL73ve+5gQMHur333hszQgACEIBACxB45ZVX3KpVq9yZZ57ZAq1lbyL3goZTzrIblRIQgAAEQgjkXdB069bNbdiwwekHjAQBCEAAArUnwClngYwRNIEAKQ4BCEAgIwEETUZgZIcABCBQcAIImkADI2gCAVIcAhCAQEYCCJqMwMheCAJbtmyJQhnXrl3bYDxLly51AwYMCBrnzJkz3d/+9je3fv16t3z58rK6RowY4ebOndug/tdff90NGzbMDRkyJLj9oM5TuM0TQNAETgEETSBAikMAAhDISABBkxEY2QtHYNmyZW7RokXROzc6dOgQPD4Jk9GjR7uhQ4e6OXPmuN69e7vx48c3WS+CpklEZGghAgiaQNAImkCAFIcABCCQkQCCJiMwsheOQFzQyLuyevVqt3XrVtevXz+3YsUKN3HixMhros82b94ceVjWrFkTeVM2bdrkevbs6eTZ6dq1q5P3Ry8lnDRpkhs7dmyioDHxYt6b/v37u1mzZkX5Vafq8z1I5jWq1GbhjMKAWpUAgiYQP4ImECDFIQABCGQkgKDJCIzshSOQJGiWLFkSCRQlCYu4oJFYGT58uJsyZYrr1atXmdBRfRJB06dPj0LI/JAzEz47duyI6j7yyCMjAaS6JkyYEHl0TCSZcLL+TZs2zY0bNy6xzcIZhQG1KgEETSB+BE0gQIpDAAIQyEgAQZMRGNkLR6CSh0YhaBIeSYJG4WQmPAyIiRV5Z+TZ0SsoJGgqhZz5Xpru3btHXh8TNJ06dSrVn+SdibcpzxAJAtUigKAJJImgCQRIcQhAAAIZCSBoMgIje+EINFfQTJ482c2fPz8KM7Mkb4vCxhQ+1r59+4qCRm1KKEmsSAjFPTR2KIHlUx55hW644YYGbRbOIAyo1QkgaAJN8NJLL0Uxq8cdd1xgTRSHAAQgAIE0BPIuaO6//3530kknuT333DPNcMgDgcwEGhM0qsy8LOeff370744dO0biQoJk0KBB0YZ/23czatQot3DhQjd79uyoH5U8NH6bK1eujMLNfA+N9uUoqW7tm5F4mjp1qhszZkyDNqt1mEFmcBQoLAF5Jn/3u99F4ZR5TLl/sWYeodEnCEAAAkUmkHdBU2T2jC0fBBoTNDr1TGJFgkNhYVrgtWvXruKhAIsXLy4JEQspSwo584+NHjx4sNu5c2fJY6NQNgtXs/03HAqQj7lCL/JBAEGTDzvQCwhAAAK5IVDvgkbv+fj/2HsTKKuKa/+/nAdQfIlJQEA7oFEh4vwT0GcccMh7xqcQfSQPCRIjg4AvRhDFgKAoD9QoUUBiCBGiRAKSaFxRIYpBUFFalxFxQI2A4IQyOIAi//U9+e+buod7u+/put197uFTa7lsTlfVqfrsurfre/aufW6++Wb3m9/8Bi9OalYVA4EABCBQfwQQNPXHlp4hAAEIVCSBShU0zz77bCRk7r777oj75s2bETQVuQIZNAQgAIFkBFIvaJTm8Pe//7278847k82M2hCAAAQgUCcCaRc0hx9+uHv88cdzLzyMCxmbNIKmTuanEQQgAIFtCOj8jMIs//znP6eSTuoFDVnOUrluGBQEIJBhAmkXNFVVVa66ujp6maHvkYmbBEGT4UXK1CAAgQYlQJazQNwImkCANIcABCCQkEDaBc1+++3njj/+ePeHP/yhxpmZoFHWqS1btuTq6g3semeIX/RvHcK2csYZZ7g+ffrk1VFGq/fffz937Tvf+U70UkO/KD3vypUrc5eOO+44d8UVV+TV0VPO1157LXdNHqcRI0bk1dG/X3jhhdy1b33rW9FLGf1yww03uMWLF+cu7b///u6WW27Jq/OLX/zC/e1vf8td+/rXv+4mTZqUV0eZtBQNYUWphZUlyy86j3T//ffnLu26667ODrvbRf373nvvzWunl1HutNNOuWs60K6MX36ZNm2aa9KkSe7SX/7yFzd58uS8Or/61a/cV7/61dy1xx57LEqD7Jdf/vKXrmXLlrlLTz75pBs7dmxeHR3m10F+K88//7wbOXJkXh29GPPb3/527trLL7/srrzyyrw6ymh2zDHH5K794x//cD/96U/z6lx22WXuhBNOyF175513XL9+/fLqKANaly5dcteUNODCCy/Mq6P0zWeddVbumtZ19+7d8+r84Ac/iDKd+eX73/+++/LLL3OXzj333Og9Nn5R8oFPPvkkd+m73/2u+8lPfpJX56KLLnJr167NXTv55JOjzGp+0b+VkdZKx44do6f5flF2NsvUputHHHFElKnNLz//+c+jTFpWDjnkEKd3+PhFLxOVV9aKHnDowYZfbrrpJvfEE0/kLikLnd7n4xf9e+7cublLSvagde4XpeB+4IEHcpd22203d8899+TVUYhr/LtICRt22GGHXD0lmZg+fXpeu9/97ndujz32yF178MEHt4lG+vWvf+3kebDy6KOPOq1zvyh7nr4TrSgDnta5X2688UbXpk2b3CU9ELr22mvz6ihjXrt27XLXXnrpJTds2LDcv7U2P/zwQ6czimkseGjSaBXGBAEIQKARCaRd0GgDo426Nr3a/BYrJmi0Cdi6dWuumjb+Bx54YF4zhbB98cUXuWvaGB988MF5dbRB2rRpU+6aNkn+BkC/0Cba3yB+7Wtfc4cddlhePxIhGzZsyF3TH+L4qwm04dDmwYpEhr+B1nU9MfUFlkSBBJRftDnURtrK7rvvHr3U0S/Lli1zb7/9du6S0mErLbZfXn311ejt9VZ23HFHd9JJJ+XVkcfszTffzLumza+/sdPG39/UqvKJJ57odt5551w7bYwlIvwiAavNpJU1a9a4pUuX5tXRJnrPPffMXXvvvffyRKF+IYZiaUUb9eeeey6vH9nC30RqI+dvoFW5Q4cObt999821kxh++umn8/pp3769+8Y3vpG79umnn0bplv2iDbu/GdWaXbBgQV6dgw46KO+9NhIpEnR+0WZVnwu/KL25Xw444IA8MaffzZ8/P0/sN+S6/8pXvhKJGr9os/zRRx/lLklkHH300Xl1JEI/+OCD3DVlmNN3ll/+/ve/O732w4qEQzzdsDbsq1evztUp57o/5ZRT8sZTyrrXg5BXXnklr1183Wu8Grdf4ute89b8/aJ3Fu211165S+Injn456qij3D777JO7JDv44kWfbwms+BrO66QR/4GgaUT43BoCEIBAGglUgqDRhl9/wORZ0NPZQsKGkLM0ri7GBAEIVCIBQs4CrUbIWSBAmkMAAhBISKCSBI1NrZCwQdAkNDzVIQABCBQhgKAJXBoImkCANIcABCCQkEAlCppCwgZBk9DwVIcABCCAoKmfNYCgqR+u9AoBCECgGIFKFjS+sNEZD8XFUyAAAQhAIIwAHpowftEBS8VGX3PNNYE90RwCEIAABEohkHZBo2xOyj7kH3ItZV7UgQAEIACBuhFQZkZlUVRWtTSW1CcFSCM0xgQBCEAgywTSLmiyzJ65QQACEIBAcgIImuTMaAEBCEAg0wQQNJk2L5ODAAQgkDkCCJrMmZQJQQACEAgjgKAJ40drCEAAAhBoWAKpFzR6kY9eEHT22Wc3LBnuBgEIQGA7JZB2QaM33ffq1cvpJZEUCEAAAhCofwJ6YefcuXPdD3/4w/q/WR3ukHpBQ5azOliVJhCAAAQCCKRd0OiN6PZizYBp0hQCEIAABEokQJazEkEVq4agCQRIcwhAAAIJCSBoEgKjOgQgAIGME0DQBBoYQRMIkOYQgAAEEhJA0CQERnUIQAACGSeAoAk0MIImECDNIQABCCQkgKBJCIzqEIAABDJOAEETaGAETSBAmkMAAhBISABBkxAY1SEAAQhknACCJtDACJpAgDSHAAQgkJAAgiYhMKpDAAIQyDgBBE2ggRE0gQBpDgEIQCAhAQRNQmBUhwAEIJBxAgiaQAMjaAIB0hwCEIBAQgIImoTAqA4BCEAg4wQQNIEG/vDDD51e5nPwwQcH9kRzCEAAAhAohUDaBc0zzzzjjjjiCLfzzjuXMh3qQAACEIBAIIGPP/7Y6WX3hx12WGBP9dM89S/WrJ9p0ysEIAABCBQjkHZBU4mWmz17thszZoybNWuWa926dfAUxo0b5xYuXOimTp3qmjVrFvW3YsUK17t3bzdq1CjXqVOnOt2jtj4WLVrkLrjgArd8+fJc/+ecc07eOOp04yKN1q1b53r16hXds2vXrkW7Vr2hQ4e6gQMHul/+8pfuqquu2oZzbXMrZdzlsKPG0a1bt2i8heYUn3O/fv3cpEmTXN++fd3EiRNLGWa91SnGUFymTZsWrQPNq02bNm7w4MFlGYfft631unZc6nqqa//xduUce7nGlNV+EDRZtSzzggAEIFBHAgiaOoKroVk5NsJ+94UETflHvW2PEjSDBg1y48ePj0RTQ28Qi81RPNq2bRsJBI1RwvHGG2/Mqx4fe114lcOOtQkaf1zlEGF1mWexNrUxtPXQuXPnsgmaco4/Leu1nHOir38SQNCwEiAAAQhAII8Agqb8C8LfCM+YMSPyrqxatcotXrw4evLes2dPN3z4cDdlypTIs+ALlnnz5kVP9FXsKb3/ez0Rf/bZZyPPxNVXX+2GDBniJkyY4Jo3bx492VfRBt82++ZhUV9r1qwp6uVRO6srsaAn8Co1CRrN08Zq99X/zbNw4IEHRp4qeV3mzJnj5N3ZuHFj5FXy76efx44d6y6++OKch8bvZ+7cuVFbeQTWr1/vrr/++qhfe4J/+eWXR+MwT5VtZO2eajd58uSIld0r7lHw29j8V69eHd2nZcuWufGbl0w2sf58b4p5WIzHsccem/PQtGjRImLcp0+fnACw+2r8spvGrDa+d6/Q2Fq1apXn+dF4FCJ02mmn5fGX98TW33nnnedOOOGEnJ3tPlqXZjNjLREr2/sMjbd5Io466qhoHfvrxdaQ9S0O8iQef/zxbuTIkVFd2VpcdV/97NvC93L4NivkGfS56D7xOvb72j4b8fWn+o888kj0Gbjrrruiz1WXLl2itSP76rPl29nnqDajR492l156afSZnD59eo5PXT2p5f+GqvweUy9olBRAi+Huu++ufNrMAAIQgEAFEEi7oPnmN7/plixZEj2Rq5QSFzQzZ86MNqgrV66MNonakEuEWGiVNkfaiGrDawKiXbt20eZeT79VtCk9/PDD3TvvvBNtPu1pvi9odN3Ej21I7em57lGToNHGzUKHbHMs4RUPOfM3oJqnhVH5G2qNSX/LtYGLizX73YYNG9xxxx0XiRLbxNqYdU8Vq+tv3nVdm00/HEv3UPE3xr53wYSJbKBSKAQsPk6NX/U0FrXzhYn6sJAr/WxhcvrZQg1la232r7vuuig07sILL4zmGQ8R9L0IukehMMJCY9OmWfe1ULaa+Nv6M3FhYyjUxmftr0d/Mx63l9ZY9+7d88ZufSscUByPPvroyGZahxLkYmpi3w+ltL5NFGis9lmIhyK++OKLkT3bt29fMATT2KqO7qGHBWafl156qej6kxDRWP3Pseyp+2v9y056QNGxY8c8r6WtC7ONBKTWpOas0tghhEm+P5UUQOt2/vz5SZo1WN2KEDT6Ur3nnnsaDAo3ggAEILA9E0i7oKmqqnLV1dUVLWjs/Iu8C7ZhXbBgQbTstBE0EaMn1rZR1kbfNoUSGtrc+0/u44LGhIttCPv37x+dLbFwsULx/X6Ikzb92nja03ZtYIuFnPkhRr6XRp4KCTPbNO699945UaaNXTykyj+jo6frcUET78cXV/Gn+nGR449drOW9sA2lNpjxcx+FrvkbWpuLjcG8M/bdobmrT/8++p2FnBXyRuj3pQiaQmOLh7L54sQ/v+WLoaVLl24jULWmLrroInfnnXdGIsOfZxJB43t+jIn6lidRG+O48DLB4K93tYufz5F3pKZzW4W8V3FPna3XUtef/xDAhEih8LW4Ny4uaArNuVL+1pDlLNBSpG0OBEhzCEAAAgkJIGgSAiuheqGQMwuXMkGjbuSlOf300yPvS6ENni9oavPQhAoa2wRaKJU2kXFRpDHbmCyUTNcspMtCnkoRNHp4aU/qTchVkqCJCxefjf8k3oRHiIemnILGD3W0pVxMuCUVNIX6Lia8ShE0EvW+YCkUnmaheoW8W/EzPr6gqWn91SZo/NDBeJikhZwV8p5VmodmwIAB7vHHHy/hG6/hq+ChaXjm3BECEIBAqgkgaMpvnlIEjcJotGFYtmyZu/LKK3NnXmoKOfM3/LaBs5CzuKCpS8iZvCsKISvm5fE3iP5G7tRTT408MQrV8T00hc4HWRiZH+Jm4XClCBpZqyFCziTKinkuNAabhx8aKO+WH3ImWw4bNiwKMdTTenuC74dYleKhiYec6R7qQ33L7maL2vjLQygBYKFQ1q+uiX2Ih0aexkJ9FwuNq03QqJ3mp3FpHRXzoJmHR+FkfqijWNcUciabmJcuvv78z5JvTwuBSrBQAAAgAElEQVQ5k6Ax8eaHouGhKf93abEeETQNx5o7QQACEKgIAgia8pupFEEjj0ihLFrxEC7/XIx/DiCeFCAuaFTXDzGqLSmAnZ2Qt6TQIW+j5If/mDdH9Xv06OGef/75aFNrm2NtROMH9C0pgIW4qd8RI0a4J554wt16663RJtbO0BQKOZOQM9Fn/UsYypvkn/Mwz4AO9JeSFEDjKBRCVGgMEn3FkgL41+VRsI2+BI0JPz9krxRBU2hs/hjEX3Nv2rRpjYJSHg8/zM8/zF6MtexpDONJASxtsx2g1zgLJQXwzyyZh682QWNr3ZJOFAo788P5tP60tvxzNsZWXDRvpR+3hBn+5yy+/nz72JrwkwKYHS1hgvrv0KFD7nNTk4gr/7dN8h4/+ugjt88++9TYkJCz5FzzWhByFgiQ5hCAAAQSEkDQJARWodXTcDC5HGmQhb+UtM0VaiaGnVICtaWwTumwCw5L4ZInnniiu+yyy6L/ChUETaBFETSBAGkOAQhAICEBBE1CYBVSPZ7SNp4KuKGm4XssdE97Qh5yfz2Zl5dGT8JvuOGGbbwzIX3TFgJGIJ6WPH6Gp1JJSdDIq6ci71shYYOgCbQugiYQIM0hAAEIJCSAoEkIjOoQgAAEKpiAL2hsGnFhg6AJNPAzzzzjHn300VS+cTZwajSHAAQgkEoCaRc0P/rRj6IQI8WpUyAAAQhAIIzAG2+84b797W8X7ETC5mc/+1mUKvuOO+6IklyksaQ+KUAaoTEmCEAAAlkmkHZB85vf/CY6KE6BAAQgAIFwAlu2bHHvvvtujR3pJb56KexZZ50VfsN66AFBUw9Q6RICEIBAJRNIu6CpZLaMHQIQgEDaCBQKObMxSsjoTE3Pnj3TNuy88SBoUm0eBgcBCECg4QkgaBqeOXeEAAQg0FgECgmaShEyxiz1gubll1921dXVUd52CgQgAAEI1D+BtAsaZRYaOHCg22OPPeofBneAAAQgkHECvqApJmT0nqj7778/emlrGkvqBQ1ZztK4bBgTBCCQZQJpFzRVVVXRgy79AaNAAAIQgEAYAQkavZi1ptAyspyFMXYImkCANIcABCCQkACCJiEwqkMAAhCoYAKff/6522WXXWqcAYIm0MAImkCANIcABCCQkACCJiEwqkMAAhDIOAEETaCBETSBAGkOAQhAICEBBE1CYFSHAAQgkHECCJpAAyNoAgHSHAIQgEBCAgiahMCoDgEIQCDjBBA0gQZG0AQCpDkEIACBhAQQNAmBUR0CEIBAxgkgaAINjKAJBEhzCEAAAgkJIGgSAqM6BCAAgYwTQNAEGhhBEwiQ5hCAAAQSEkDQJARGdQhAAAIZJ4CgCTTwhg0b3EcffeRat24d2BPNIQABCECgFAJpFzSvvPKKa9u2rdtpp51KmQ51IAABCEAgkMBnn33m9HLNb37zm4E91U/z1L9Ys36mTa8QgAAEIFCMQNoFDZaDAAQgAAEI+AQQNKwHCEAAAhDII4CgYUFAAAIQgEAlEUi9oPniiy/c5s2b3Z577llJXBkrBCAAgYolkHZBo1Dkpk2buh122KFiGTNwCEAAApVEYMuWLU5hZ02aNEnlsFMvaEgKkMp1w6AgAIEME0i7oKmqqnLV1dVOf8AoEIAABCBQ/wRIChDIGEETCJDmEIAABBISQNAkBEZ1CEAAAhkngKAJNDCCJhAgzSEAAQgkJICgSQiM6hCAAAQyTgBBE2hgBE0gQJpDAAIQSEgAQZMQGNUhAAEIZJwAgibQwAiaQIA0hwAEIJCQAIImITCqZ4LAihUrXLdu3dzixYu3mc+sWbNc165dg+Y5bty46FD1kiVL3Jw5c/L66tu3r5s4ceI2/a9bt8716tXLXXDBBcH3Dxo8jbd7AgiawCWAoAkESHMIQAACCQkgaBICo3rmCMyePdtNmzbNTZ061TVr1ix4fhImAwYMcD179nQTJkxwnTt3doMHD661XwRNrYio0EAEEDSBoBE0gQBpDgEIQCAhAQRNQmBUzxyBuKCRd2XhwoVu1apV7rTTTnOPPPKIGzp0aOQ10e9ef/31yMOyaNGiyJuyfPlyd+yxxzp5dlq3bu3k/bn++uvdVVdd5QYNGlRQ0Jh4Me/NOeec48aPHx/VV5/qz/cgmdeo2D0zZxQm1KgEEDSB+BE0gQBpDgEIQCAhAQRNQmBUzxyBQoJm5syZkUBRkbCICxqJld69e7tRo0a5Tp065Qkd9ScRNGbMmCiEzA85M+Gzfv36qO/27dtHAkh9DRkyJPLomEgy4WTjGz16tLv00ksL3jNzRmFCjUoAQROI//nnn3cLFixwl1xySWBPNIcABCAAgVIIpF3Q/PSnP3XXXXddal/wVgpj6qSbQDEPjULQJDwKCRqFk5nwsNmZWJF3Rp6dU089NRI0xULOfC9N27ZtI6+PCZoWLVrk+i/knYnfU54hCgTKReCtt95yd911l7v66qvL1WVZ+0n9izXLOls6gwAEIACBWgmkXdDUOgEqQCCQQF0FzfDhw92UKVOiMDMr8rYobEzhY3vvvXdRQaN7SihJrEgIxT00lpTA6qmOvEK33377NvcMnD7NIVBxBBA0FWcyBgwBCECgfgkgaOqXL72nn0BNgkajNy/LxRdfHP3cvHnzSFxIkJx33nnRgX87d9O/f//oyfZtt90WTbyYh8a/57x586JwM99Do3M5Kupb52YknuSpHDhw4Db3LFcyg/RbihFC4J8EEDSsBAhAAAIQyCOQBUFzzz33uO9///tul112wboQSEygJkGjrGcSKxIcCgvTeZmmTZsWTQowY8aMnBCxkLJCIWd+2ugePXq4jRs35jw2CmWzcDU7f0NSgMRmpUGGCaRe0Lz44ovuqaeeilyvFAhAAAIQqH8CaRc0iuHW0/A999xzGxgSMjfffLN75pln3ObNmxE09b9cuAMEILAdEFCGv9///vfusssuS+VsUy9oyHKWynXDoCAAgQwTSLugqaqqctXV1VGIgRVfyNg1BE2GFylTgwAEGpQAWc4CcSNoAgHSHAIQgEBCApUkaAoJGQRNQoNTHQIQgEAtBBA0gUsEQRMIkOYQgAAEEhKoBEGjsLM77rgjCi0rVsxDozMMW7duzVU79NBD3RFHHJHXTOcRVN/KgQceGGWa8ssf//hH98knn+QuyVOk8xN++fOf/xyl9bXSqlUr9+///u95dR566CG3du3a3DUdKD/55JPz6vz1r39177zzTu7aV7/6VXf66afn1Xn88cejFz1a0dmO//iP/8iro5dB/uMf/8hda9KkiTv77LPz6jz99NPRiyCt7LbbbtELI/2yZMkS9/LLL+cu7bTTTu7888/Pq/PCCy+4v//973nXunfv7nbYYYfctZdeesk999xzeXV0kH7XXXfNXXv11Ve3set//dd/5YUYvvHGG+7JJ5/M6+c///M/oyxiVnQmRa998MsZZ5zhvvKVr+QurVmzxj366KN5dXRW5etf/3ru2vvvvx+9Q8YvJ554omvZsmXu0kcffeS0X/GLzskccMABuUs6E3P//ffn1dFnTedwrGzatMnp/I5fjjrqKHfwwQfnLm3ZssXde++9eXU6dOgQvb/GL6Ws+z/84Q/u888/zzU76KCD3DHHHJPXj87sfPrpp7lr3/zmN13Hjh3z6jzwwANuw4YNuWvK8nbCCSfk1Sll3SsZwrvvvptrt++++0bprv0yf/589/bbb+cu7bPPPu673/1uXp0nnnjCKc2wFZ1x+t73vpdXR8cZ9F4fK7vvvrs799xz8+qUsu610dfxCL/E1/3SpUudXkPil/gZv1deecU9++yzeXX0ctU99tgjd03j1bj9ctZZZ7m99tord6nQuj/zzDPzPNqrV692jz32WF4/8XX/3nvvublz5+bqiOd99923zecur5NG/AchZ40In1tDAAIQSCOBtAsaiQRtTiZNmlQjPhM0AwYMcNoEWtEGKb5h/9nPfpYnVrRh/cEPfpDXv87tfPjhh7lrxx13XJSxyi8jR4502iRbkXDq06dPXh29XNEXGYccckj0ckS/3HLLLXkCQptIHUL3izJgaTNlZb/99nM///nP8+oohfDixYtz1ySMlBnLL7/73e/yNv7a/OnQu1+08dVm04qSLSgNsV+0WX/wwQfzriml8I477pi79vDDD0ebIr/ozJO/adOG1Q7SWz29x8UPMdSmTpm8/DJixIgo25gVCSeJXr/oZZi+yJDAis9D7zn61re+lWumTWSchzKXHXbYYbk6EpZxrj/+8Y/zxIGEUdw+Ovx//PHH5/qRKIjbWVnTTjnllFwdrev4etHnIS5m9f6+L7/8MtdOgji+Ydd5CF+sfOc733HajPvlyiuvdBJsViRmfvSjH+XVueaaa/IE+JFHHumUAc4vN9xwQ57IaNeuXZShLb4WJGitSOxdfvnl26wpXzjr+2DYsGF5de688848cSBhdO211+bVmT59upPwsSJRMHbs2Lw6epmqHi5YkfC+9dZb8+r86U9/2kbM6t1BvpCXmPNfpqoOfvGLXziJKCsSGDqj4hd9V+hBhRVlt1PGPL/oO8cX4BJhv/rVr/Lq6LvLTyUuAWZZ96yi1oIErRU95Ljxxhtz//7ggw+iBx9x0ZV3o0b8B4KmEeFzawhAAAJpJJB2QWNnaLT502Y4vsEwppyhSePqYkwQgEAlEiDkLNBqhJwFAqQ5BCAAgYQEKkXQ2BN7hUIUEjYImoSGpzoEIACBIgQQNIFLA0ETCJDmEIAABBISqDRBY9OLCxsETULDUx0CEIAAgqZ+1gCCpn640isEIACBYgQqVdDEhY3OPfBiTdY5BCAAgXACeGgCGX722WfRQU0/K0lglzSHAAQgAIEaCKRd0OjQvQ7B+ofNMSgEIAABCNQfAWXDU3KIr33ta/V3k4CeU58UIGBuNIUABCAAgToQSLugqcOUaAIBCEAAAhkmgKDJsHGZGgQgAIG6EEDQ1IUabSAAAQhAoLEIpF7QKD/6xx9/7JRDnAIBCEAAAvVPIO2CRu/8aNGiBSFn9b8UuAMEIACBiICSrOg9XN/4xjdSSST1goakAKlcNwwKAhDIMIG0Cxp7D43/osUMm4OpQQACEGh0AiQFCDQBgiYQIM0hAAEIJCSAoEkIjOoQgAAEMk4AQRNoYARNIECaQwACEEhIAEGTEBjVIQABCGScAIIm0MAImkCANIcABCCQkACCJiEwqkMAAhDIOAEETaCBETSBAGkOAQhAICEBBE1CYFSHAAQgkHECCJpAAyNoAgHSHAIQgEBCAgiahMCoDgEIQCDjBBA0gQZG0AQCpDkEIACBhAQQNAmBUR0CEIBAxgkgaAINjKAJBEhzCEAAAgkJVKqg+fWvf51wplSHAATKRWDt2rVu8ODB5eqOflJGAEETaJClS5e6p556yl144YWBPdEcAhCAAARKIZB2QTNixAh3xRVXuD333DM3nQULFrgf/ehH7pxzzillitSBAATKSOC9995z9957rxs5cmT02aRkj4BeaDxz5kz3v//7v6mcXOpfrJlKagwKAhCAQIYJpF3QFEIvQTNmzBj3wAMPZNgyTA0C6STw1ltvuTPPPDN6i7z+j6hJp52yPCoETZaty9wgAAEI1IEAgqYO0GgCge2YgATNWWed5ebNm+fOP/98RM12vBYaa+oImsYiz30hAAEIpJQAgialhmFYEEgpARM0Omeh8DNETUoNleFhpV7QPPfcc+5vf/ubGzhwYIbNwNQgAAEIpIdA2gXNoEGD3A033OCaNGmSg0bIWXrWDyPZ/gj4gkazR9Rkbw3IxlOnTnXDhw9P5eRSL2jIcpbKdcOgIACBDBNIu6Cpqqpy1dXVTn/ArCBoMrwgmVrqCcQFDaIm9SZLPECynCVGlt8AQRMIkOYQgAAEEhJA0CQERnUIbOcECgkaRE22FgWCJtCeCJpAgDSHAAQgkJAAgiYhMKpDYDsnUEzQIGqyszAQNIG2RNAEAqQ5BCAAgYQEtldBs2jRInfBBRe45cuX54jpvTaKG2/WrJkbN26ce/31193EiRNLJrpu3TrXq1evqN+uXbuW3C5esV+/fm7SpEnujDPOcHvssUduTKV2uGLFCte7d283atQo16lTp1KbVVy9utio0CQL9dNQDLUOdU5hypQprnXr1sE28NfgscceWy/roCZBg6gJNmEqOkDQBJoBQRMIkOYQgAAEEhLYngWNEg6MHz8+t+mXkFizZk1iAWHIyyFoyrGRLkcfCZdRo1Qvl6CR3VWSiNdyTXj27NnRO5VmzZpVFkHjj0tiKb7GyzFuCZpTTjnFTZs2rWh3H330kbv66qtdx44d3e23316O29JHAxJA0ATCRtAEAqQ5BCAAgYQEEDT/EjS+EFDiAfPQmMdEaPv27RttQOWJOfzww9306dMjL482pKeeemrOQ2M/z5kzJ7KIvD8ST9pgmgdHm1ltCs0rZIJIbfR0/aKLLnL6uzh69Gh36aWXuubNm0f3a9u2bdRO3hf10a1bt5zVNY5CT+atb3/Md911V9Re99O8tKEXA/W3ePHivPvEGaiu7+Xyx+TX1Vhss27Xu3TpEo1X/5Yny68/duxYN3jw4LxV7HMxlmI2efJkt3DhQqe3mmu8Nge/vo2rXbt2kW06d+4c9W/sNVfZQ0XjNM9afC3E72NrwGzpiwetnSFDhkR92ph0PxNMc+fOjdaD7Kox+WOXSLO2xkLX7P6HHnqoW79+fbRmVOIeQZu75qX5yLbmeRSv+LjUtzavGzduzK2DNm3aRPV82/kGkaDROt60aVON3zabN292L730knvllVdc06ZNE34zUb0xCSBoAukjaAIB0hwCEIBAQgIImn8JGt/DIpEiQdOzZ89cSJDQKpRLm70JEyZEpLWx1AsGtcHVz8OGDYs2yAcffHD0+/bt20ciwULAtNlV0aZaG3ltHv0NvF939erVkXCxje95552Xa6c+tEHWRtk24eaxuOqqq7YJNbK52Zi1ub3jjjui/nWf+PjVp236+/fv77S5VliUMVA4mwSRjd+/twSGnsz7PNXOPBErV66MGKlP42xiqlCo3IsvvliUpc2hVatWkRAbOnSoe+SRR6L6xsefW1zQyGZqY/Xt4xO32cyZMyOBoLGb18MXvWKl+5522mk5keoLDv2sdSPe/lh9LhI2xkjXbT5iZPfXdbu/xhIPV/OZt2jRIlfX1lJcCKlvY6i+ZZc+ffq47t275+4fEj6puS5btgxBk/B7ubGrI2gCLYCgCQRIcwhAAAIJCaRd0Oy7777ummuucXvuuWduZq+++qqbP39+9NS6rqVQOE4hQWNP4n0vRjy0zDa/JnTsqX0hT4HGKzF0/fXXOwkPiQX/nEtNgkYbb20u46FWvpdGHoGaBE2hDf3SpUujjfF1110XvQdOG2sr8nBIGGjMPgP93u7re2esne91kRDwRYbPT9d1XsgvtXlp7H4SFFoD5uHSPffbbz+3ZMmSnBcsbpu6Chq7j7wjJrrMlrfddlskiiRmJBDMC2Jzkk30OxMre++9d86z4guaGTNm5J3bMsGrOvF5qj8V8fND5YoJGt9r5I9LgrTQ3MyjFXoeDEFT12+oxm2HoAnkv2XLFvf555+73XffPbAnmkMAAhCAQCkE0i5otNlVyIpf5AHQRrXcgqZYyJnu7Ydi6Sm7Num22SskaNTGwn78EDBtFAcMGBCFPmn82gwrCYGVJILGxJbaWgiWvEohgkbnHoolE/AZ+OFZFial0CYJNG3E9ZT/4osvzm3caxI0cS9VfN2acIqH0zW2oDFbnnvuuZHnRSGFcVFic/HPyoQKGvMGqW8JG9+DUpOgKZTkwsLZtH58sYagKeXbM7t1vvzyyyikUElJ0lhS/2LNNEJjTBCAAASyTCDtgqYQ+3K8WLOQh8ZPCqCQLAs5k3dCwkNFZxZMqOhMS6GwJjuTYedjFJJm4UZ27kV9KotZ/LxIXQSN7mdndjSmugqaW2+9NQqZi89L/UlM+Ax0TwuxKhae5oeWiV2xkDM/nMrCrPxNun/WyGepdVBqyJnGL6+Yimzm27qUkLNCXgzZUoLgoYcecgcddFBuLZit/XM78irV5qGpKeTM99BItGjMr7322jbZ0WoKOSs0LvHAQ5Plb/hszg1Bk027MisIQAACdSawPQuaUtM2+we1/aQAGzZsiM7PqMSTAsgrY4fre/ToER26jnt0CnlCkggabcxtbNow6z7PP/98LomA379tdGsKObMzMoWSAsQZFEsgYJt4O4yuw+AdOnTInf2Rxy1pUgDfM+SzVHjXww8/HPHXQfuakgLEEyiormW0s8PytSUFiHsx1KeNzcIBNZZCrIp5aHTORetCnhbfnuonnhTAQuvsHoU8LvG0zbJly5Ytcx68QkkBEDR1/vqkYSMRSL2g0R+HtWvXugMOOKCREHFbCEAAAtsXgbQLGmVJ+ta3vuV22mmnnGHK4aEJsXJcHCTtK57dLGn7Sq9fX+mEK51LqeMvR3rwUu8VWo8zNKEEG6f9p59+GmUPPPDAAxtnALXcNfWChqQAqVw3DAoCEMgwgbQLmqqqKlddXe30B8xKJQsae3rvewMyvLxyU4unly508H974BA6R/MImdfFP38V2nd9tEfQ1AfV+u+TpACBjBE0gQBpDgEIQCAhAQRNQmBUhwAESiaAoCkZVaoqImgCzYGgCQRIcwhAAAIJCSBoEgKjOgQgUDIBBE3JqFJVEUETaA4ETSBAmkMAAhBISABBkxAY1SEAgZIJIGhKRpWqigiaQHMgaAIB0hwCEIBAQgIImoTAqA4BCJRMAEFTMqpUVUTQBJoDQRMIkOYQgAAEEhJA0CQERnUIQKBkAgiaklGlqiKCJtAcCJpAgDSHAAQgkJAAgiYhMKpDAAIlE0DQlIwqVRURNIHmQNAEAqQ5BCAAgYQEEDQJgVEdAhAomQCCpmRUqaqIoAk0xyuvvOKee+45d/755wf2RHMIQAACECiFQNoFzU033eT69+/v9thjj9x09B6aSy65xP3v//5vKVOkDgQg0EgEfvazn7m33nrLNW3atJFGwG3rQmDNmjXugQcecBdddFFdmtd7m9S/WLPeCXADCEAAAhDII5B2QVPIXO+++64bPny423PPPbEmBCCQYgJbt2511157LYImxTaqxKEhaCrRaowZAhCAQD0SqERBU4846BoCEIAABFJOAEGTcgMxPAhAAAINTQBB09DEuR8EIAABCIQQSL2geeaZZ9y8efPcFVdcETJP2kIAAhCAQIkE0i5oevXq5W677TZCVkq0J9UgAAEIhBJ444033MSJE93YsWNDu6qX9qkXNGQ5qxe70ykEIACBogTSLmiqqqpcdXW10x8wCgQgAAEI1D8BspwFMkbQBAKkOQQgAIGEBBA0CYFRHQIQgEDGCSBoAg2MoAkESHMIQAACCQkgaBICozoEIACBjBNA0AQaGEETCJDmEIAABBISQNAkBEZ1CEAAAhkngKAJNDCCJhAgzSEAAQgkJICgSQiM6hCAAAQyTgBBE2hgBE0gQJpDAAIQSEgAQZMQGNUhAAEIZJwAgibQwAiaQIA0hwAEIJCQAIImITCqQwACEMg4AQRNoIH/8pe/uOnTp0f/USAAAQhAoP4JpF3QHHjggU7vKNtnn33qHwZ3gAAEIAABJ0Fz6aWXukcffTSVNFL/HppUUmNQEIAABDJMIO2CJsPomRoEIAABCNSBAIKmDtBoAgEIQCDLBBA0WbYuc4MABCCQPQIImuzZlBlBAAIQCCKAoAnCR2MIQAACEGhgAqkXNGvXrnXvvPOOO/TQQxsYDbeDAAQgsH0SSLugeeqpp9zRRx/tdt555+3TQMwaAhCAQAMT+Pjjj92rr77qjjjiiAa+c2m3S72gIctZaYakFgQgAIFyETBB85WvfKVcXZa1nyeffNIdc8wxCJqyUqUzCEAAAsUJbNy4MRI0Rx55ZCoxPffcc+6UU05xs2bNKml8O2zdunVrSTXLVAlBUyaQdAMBCECgRAISNB988EGJtRu+2ltvveVatWrldtxxx4a/OXeEAAQgsB0S2Lx5s3v//ffdfvvtl9rZy3uEoEmteRgYBCAAAQj4BKqqqlx1dbVTiAEFAhCAAATqn0Da30OTlAAemqTEqA8BCEAAAmUlgKApK046gwAEIFArAQRNrYhqrkDIWSBAmkMAAhDIGAEETcYMynQgAIHUE0DQBJoIQRMIkOYQgAAEMkYAQZMxgzIdCEAg9QQQNIEmQtAEAqQ5BCAAgYwRQNBkzKBMBwIQSD0BBE2giRA0gQBpDgEIQCBjBBA0GTMo04EABFJPAEETaKI33njDvfjii+6ss84K7InmEIAABCCQBQKTJ092PXv2dLvvvnsWpsMcIAABCKSewHvvvefmzZvnunfvnvqxljLABs9yVsqgqAMBCEAAAhCAAAQgAAEIQKAUAgiaUihRBwIQgAAEIAABCEAAAhBIJQEETSrNwqAgAAEIQAACEIAABCAAgVIINLigWbRokVNigFGjRpUyPupAAAIQgEDGCXTt2tX99re/dXvttVfGZ8r0IAABCKSDwGuvveZuuukmN3HixHQMKHAUDS5oyHIWaDGaQwACEMgYAbKcZcygTAcCEEg9AbKcBZoIQRMIkOYQgAAEMkYAQZMxgzIdCEAg9QQQNIEmQtAEAqQ5BCAAgYwRQNBkzKBMBwIQSD0BBE2giRA0gQBpDgEIQCBjBBA0GTMo04EABFJPAEETaCIETSBAmkMAAhBISKBjx47upZdeStiq4apv3LjRNWnSxO2www5Fb9qyZUu39957N9yguBMEIACBDBP45JNP3JtvvunatWuX2lnqe3/WrFkljY+kACVhohIEIACByiUgIXDUUUdFgmHr1q2pm4jGVEzM6Ppjjz3m5MWR6KFAAAIQgEA4gc8++8ytXr3affOb3wzvrHd9o4QAACAASURBVB56WLVqlTvllFMQNPXAli4hAAEIVCQBEzQSBpVWrrnmGjdy5Ej36KOPupNOOqnShs94IQABCKSSQNpDzv7t3/4t3YJm7ty57t5773WTJ09OpYEZFAQgAIGsEUgqaFasWOF69+4dvS+sU6dOjYoDQdOo+Lk5BCCQUQIvvviiGzp0qLv//vtTOcPUC5pUUmNQEIAABDJMAEGTYeMyNQhAAAIZJICgyaBRmRIEIACBEAIhgkYHRnv16uXmzJnj2rZt66ZNmxZ5bfr16+cmTZoUDcsObd5www3uww8/dMuXL3djx451gwcPDhl21BYPTTBCOoAABCBQcQQQNBVnMgYMAQhAoH4JhAiau+66KxrcxIkT3bhx49zChQujBANLlixxU6dOdfPmzXNjxoxxF110kbvzzjsjcbN48eLomn5u3bp10OQQNEH4aAwBCECgIgmkXtC88847buXKle7oo4+uSMAMGgIQgEClEairoBkyZIibMGGC69y5c+RtWbRokRs+fLhr3ry5a9q0aSRy7LyNstE8/fTTkchZunSpGzRokBs/fnzwGRwETaWtNsYLAQhUAoH169c7JQY44YQTUjnc1Asa3kOTynXDoCAAgQwTqKugUVKAJB4ahZkpJE2pQMvhoTEx0759+yiZTJrfl5Dh5cPUIACBDBIgy1mgURE0gQBpDgEIQCAhgRBB06pVK9etW7cojMzO0PjnajSUQmdodK1r164JR/qv6oiZOqOjIQQgAIFaCSBoakVUcwUETSBAmkMAAhBISCCpoEnYfVR99uzZkXdGIWfNmjWrSxe5NoiZIHw0hgAEIFArAQRNrYgQNIGIaA4BCECgrAQqSdAgZspqejqDAAQgUJAAgiZwYeChCQRIcwhAAAIJCTSEoEk4pILVETPloEgfEIAABGongKCpnVGNNRA0gQBpDgEIQCAhARM0EgxpLY899pgbOXKkIwFAWi3EuCAAgSwRQNAEWhNBEwiQ5hCAAAQSEpCg2bBhQ8JWDV8dMdPwzLkjBCCwfRJA0ATaHUETCJDmEIAABBISaNmypduyZYvr27dvwpbFq++www4l9bV169Za691yyy3R2Hr27Elq5lppUQECEIBAOAEETSBDvYTttddecyeffHJgTzSHAAQgAIFSCPy///f/3KZNm9zzzz9fSvUGrzNjxowoxfOuu+7a4PfmhhCAAAS2RwJr1651CxcudGeddVYqp5/6F2umkhqDggAEIJBhAmkXNBlGz9QgAAEIQKAOBBA0dYBGEwhAAAJZJoCgybJ1mRsEIACB7BFA0GTPpswIAhCAQBABBE0QPhpDAAIQgEADE0i9oHn88cfdn/70J3fjjTc2MBpuBwEIQGD7JJB2QdOlSxc3e/Zsp2xsFAhAAAIQqH8CL7/8srvuuuvctGnT6v9mdbhD6gUNWc7qYFWaQAACEAggkHZBU1VV5aqrq53+gFEgAAEIQKD+CZDlLJAxgiYQIM0hAAEIJCSAoEkIjOoQgAAEMk4AQRNoYARNIECaQwACEEhIAEGTEBjVIQABCGScAIIm0MAImkCANIcABCCQkACCJiEwqkMAAhDIOAEETaCBETSBAGkOAQhAICEBBE1CYFSHAAQgkHECCJpAAyNoAgHSHAIQgEBCAgiahMCoDgEIQCDjBBA0gQZG0AQCpDkEIACBhAQQNAmBUR0CEIBAxgkgaAINPH/+fHffffe5W265JbAnmkMAAhCAQCkE0i5ovvOd77j777+f99CUYkzqQAACECgDgWXLlrmRI0e6e+65pwy9lb+L1L+HpvxTpkcIQAACEKiJQNoFDdaDAAQgAAEI+AQQNKwHCEAAAhDII4CgYUFAAAIQgEAlEUDQVJK1GCsEIACBBiCAoGkAyNwCAhCAAATKRiD1gmbVqlVu+fLl7sQTTyzbpOkIAhCAAASKE0i7oJk1a5b73ve+53bddVfMCAEIQAACDUDgww8/dE899ZQ788wzG+BuyW+RekFDlrPkRqUFBCAAgRACaRc0VVVVrrq62ukPGAUCEIAABOqfAFnOAhkjaAIB0hwCEIBAQgJZFzSzZ892Y8aMcfL0tG7dOiGdbauPGzfOLVy40E2dOtU1a9YsuL+G6mDFihWud+/ebtSoUdEtL7jggigiwso555xT65wWLVrkhg8f7qZMmVKUZb9+/dykSZPyplVK33EO6mfNmjW1jqk++fnMVq9e7aZNm1bn8Wgdinfbtm2j/w8ePHiboWvObdq0Kfi7QvNUn926dXPHHnts2dZ3MZ5a96+//rqbOHFiXhUbc/fu3aOxDB061HXt2rXsZlm3bp3r1atXtG4L9e/bqlOnTnW6f233UKdWZ86cOW7s2LEl26ouAyrn+kt6fwRNUmKx+giaQIA0hwAEIJCQAIImGbBKFTQSI4MGDXLjx4+PJmw/2+avFAFRijhUPyrxjW8SytrIaXxNmzZ1/fv3d3XdoCa5Z6G6PrOQMWg+119/fSSsJYIvv/zyaPPv92kb5c6dO5e8SU4qgEJ4FLKrP+b6FjQhYy9n21JEfbnuV671V5fxIGjqQs1rg6AJBEhzCEAAAgkJbE+CZsaMGZF3Rec1Fy9e7Pr27et69uyZ53XwBcu8efOijaeK6mqT7v9eT6OfffbZ6On4ypUrc16PYk/Mfe+F2uhJsza7uofGY+10P3lTmjdv7qZPnx491Zd3IO4lsE3mVVddlevD6rZr1y56oq0+Hnroocij8vjjjzt5SyQS1EbixjbV/tNga6un0CpqM3r06Kg/n5vv5bGn1TUJGvMo+Dx1zcTPgQceGP2sa4888og77bTTov/b77XBs3v6Xp8kXH0vgnkdxCLOW/ecMGGCEwPdS+1kMzGT2BJX80SZLW1+soG4SpDZmtE18yxoHmpz44035j6tGsuQIUNytm7VqtU268L3MFp9daC+VOJr1We7//77u7Vr17rDDz88WlPyEt11110Ra83R1rfPWH3Krhq79W1z1e/8MWsuEm1HH310xMXWoTj4fRb6bGgMWt/ipbGZbfX5M9vb+M1DE7e5+jUP5IIFC7b5nKsffxyab9wD6HtoxCf+XeF/zmyMkydPjuxmrOR5s+8Ifc9oDT/99NPu+OOPj97rIi5iKnGrz5L/ubH1pLnIAzxs2LBt1p+ur1+/vuTvjLoKcQRNwj+k8eoImkCANIcABCCQkMD2JmhmzpyZEyDamGoTpo2rv1HSJqRFixY5L4Zt8PX0XEUbHW0M33nnnWjDFQ93KRSe43s3JH4UunXrrbdGmxZ7Km8bIRMP5513XvS03hcutmnTmAYMGBAJMn/8tjn0N962mavJQ+Nv5g4++OBonu3bt8+bmwSVhe+99NJL7rjjjos8DnZPbbYk8vyQM9vYqj+7v89Tv9eGUBta23yZB0Obemuz9957R4LKWJl3Qu1tTKVytbAoX9Bowx7nLbZ2fxOTca5xm6nvU089NScmNTbZyfc0mQdKfZlI8b0dF198cd5ci3kFjcEJJ5xQK1tjLjvITtqI33HHHTmhXIpd1db3vBXy0EjQqE6hNSv7FvtsmGA0drKzvzZs/PqcqsRtft1117mrr746CqmUoCn2OffXT22CJt6HeTct7FKCxMZhglL2lxiytnbd52IPQewBiz7vEikdO3bMhbRpnv53UHz9lfqdUVdPKYIm4R9SBE0gMJpDAAIQCCSwvQkaO/+iDYT/RFcYFTZjG1htVvwzE7YR0xkHbcD9J83xp9rqK/4kutBGLi6ELJxFm7OBAwfmziP4bbVRNMElIXPllVfmPCe2FLQRNA+DbXxqCzmLnx/wzwr4HiL/PFIhj4k2dPGNr/7tix6JIJuT5uL3GQ/Psvn6T+D9p87l4GpP3uNCpyZBY1xtXtqQa8NrZ7V8sWRryhcvcZETFwe2Ns3DUejski/qCq1Vn21cEPr2WLp0aZ6XslS71hRyZvMXw/h5rfhno5S1YeO3vuLnefzPknlozJshlueff34k4swrGb+n1mghD43fh50/M1tIkPjjMHvYQw/fmxJfW+aJ9O0W9zoVEjQSP5deemkk3Py1UdN3Rl3+RCBo6kLNa4OHJhAgzSEAAQgkJICg+echeYmD008/PfK+FNps+IIm7qEpJa6+HBtvPxxLwspEmL/5NfPHz2TUJmjiB5DtibkvJHwPjTxb9qTZF3+hgsYPpbK5KDzIwsJsI2e/KwdXBM2/BE0Su5YqaGpLJLG9Cxp57yRm+vTp48w7V8xDg6D55yeftM0J/9BTHQIQgEDWCSBoRjkL31q2bFnk8dBZB18AFAo5s9AjbTy06fdDlgqFCMVDzvxwt2LhI4We6prw2Lp1q7v22mujsdtZGRM88nhYDH6pHho/KYDOLtiTY/1sIWFxQWMZufy2xQRNMZ5+yJj/FN7Om9h8NQaJTj9kSJ9N3wuhkLOauJrN1IdtHHUWphyCxsIE0xZyZt6vUj00EjSl2rUUQWNsLZyv2GfD1lg8HDE+/kIhZ7K5Qjdvv/32XMhZ3BNbaP3UFnJWyJurNVdKyJnfttC5Lf+hiQSNztIoe6CdxdO/6xJyVug7oy5/w/DQ1IWa10aL6x//+EcUl0uBAAQgAIH6J5B2QfPggw9Gm9ZddtmlTjB8IWEx6/EwEoVuFMrgVegQezxpgB/Lb+EwxZIC+N4HOwxcLClAsU2QIMQ3hX4f8aQAJgCsTsuWLaPzHBIhxdI2+/316NHDbdy4MQob0gZL/5c99J8dFB8xYoR74oknog2ZNsQqhWL3iyUFiJ+HiKeFjqcG9hMoKIyrVK5+Xf/gfjFBY9fFLJ4UIB5ypjVlSSQKJQUQE0vVbEkPCqVAVhIEicnakgKoPz/LWW1sSxU0YlvIrvrsSBT4SQFsDBqzJQUotKEuJSmA+tZT92eeeSYvKUAhQSOxG7e5wkXjSQEKhYvZZ7TUpAA1hZwVW3v+59MO8NcUcmZC2xJQKDlChw4dohBY2cJffzUlBajpO8P/8tSDm88//9wddthhRb9TJVb1/q+TTjqpTt+79d0o9R6a+gZA/xCAAAQgkE8g7YIGe0Gg0gjEw/1KSdtcaXMs53hLSQdezvuZECsmvMt9r7T1p3M/Et3y7F522WU1Cpu0jd3Gg6BJq2UYFwQgAIFGIoCgaSTw3DZTBHyvliYWf5montqraCPpp6LOFIQ6TqYhBI2f5ELDbIiXkdYRR703M0FjN6pEYYOgqfdlwg0gAAEIVBYBBE1l2YvRQgACEAghEBc0lShsUi9o/vrXv7o//OEP0cE/CgQgAAEI1D+BtAsaHRK+5ZZbopfuUSAAAQhAIIzA22+/Hb1zqViRx+a//uu/3G9/+1t33333hd2snlqnXtCQtrmeLE+3EIAABIoQSLug2Xfffd2RRx5Z56QAGB4CEIAABP5F4JNPPnHz58+vEclZZ53lVq1a5ZYsWZJKdAiaVJqFQUEAAhBoPAJpFzRVVVVRth39AaNAAAIQgEAYgWIhZ+pVWeCUKGDHHXd0evnr448/HnazemqNoKknsHQLAQhAoFIJIGgq1XKMGwIQgEByAoUEjQmZI444IuqQ99Ak55rXgpCzQIA0hwAEIJCQAIImITCqQwACEKhgAr6giQsZmxaCJtDACJpAgDSHAAQgkJAAgiYhMKpDAAIQqGACEjTXXHNNFFpmHpn4dBA0gQZG0AQCpDkEIACBhAQQNAmBUR0CEIBAxgkgaAINjKAJBEhzCEAAAgkJIGgSAqM6BCAAgYwTQNAEGviJJ55wDz74oBs9enRgTzSHAAQgAIFSCKRd0Hzve99zd999t9trr71KmQ51IAABCEAgkMCrr77qxo4d6371q18F9lQ/zVOf5ax+pk2vEIAABCBQjEDaBQ2WgwAEIAABCPgEEDSsBwhAAAIQyCOAoGFBQAACEIBAJRFA0FSStRgrBCAAgQYggKBpAMjcAgIQgAAEykYg9YLmzTffdMuWLXNnnnlm2SZNRxCAAAQgUJxA2gXNb37zG/fDH/7Q7bbbbpgRAhCAAAQagMD777/vHnvsMff973+/Ae6W/BapFzRkOUtuVFpAAAIQCCGQdkFTVVXlqqurnf6AUSAAAQhAoP4JkOUskDGCJhAgzSEAAQgkJICgSQiM6hCAAAQyTgBBE2hgBE0gQJpDAAIQSEgAQZMQGNUhAAEIZJwAgibQwAiaQIA0hwAEIJCQAIImITCqQwACEMg4AQRNoIERNIEAaQ4BCEAgIQEETUJgVIcABCCQcQIImkADI2gCAdIcAhCAQEICCJqEwKgOAQhAIOMEEDSBBkbQBAKkOQQgAIGEBBA0CYFRHQIQgEDGCSBoAg2MoAkESHMIQAACCQkgaBICo3pBAv369XPPPvusmzVrlmvdunVUR9fatGnjBg8eXC/UVqxY4Xr37u1GjRrlOnXqlLvHunXrXK9evdwFF1zgunbtWi/39u/RokULN3z4cDdlyhQ3Y8YMt3DhQjd16lTXrFmzerl3XTstZo/Zs2e7bt26uWOPPTbPfnW9T03txo0b515//XU3ceLE+uiePstEAEETCFIv8lm9erU77LDDAnuiOQQgAAEIlEIg7YJmwYIFrmPHjm7nnXcuZTrUaSQC2ixPmjTJjR07Nidg6lvQLFq0yA0aNMiNHz8+T9A0NAIJgjFjxkRiIK2CxgRY586dtxGY9W0n3x66lwqCpqFXabL7bdy4MXrR/THHHJOsYQPVTv2LNRuIA7eBAAQgAIH/n0DaBQ2GqgwC2qhqE6TSv3//SGD4G2WJD3lMli9fHnkC5MEYNmxYzovi1y30FN9v37Zt22hDPGHCBDdnzhx3zjnnRB6G3/72t9H9999/f7d27dqob3/zPHfu3KiueU9MhHXp0iWqp3+bR8f3/rRr1y7P46N6++23n1uyZIn77ne/6+688063ePFi17dv38gj9fDDD0f96X66Ft+8m7jQ2DWXadOmRbzMU6K21k7XrL3Nq3nz5u6RRx6J2knwDxkyJLqffy+bm65LaIm76vn30+/E2tqrnmwjlpqPeWz0s43hwAMPjOaoJ/iyt+Zg81Y/1mblypU5e+s+Erq6t/q2MdWX96wyPjGMMoQAgiaEHm0hAAEIZJAAgiaDRm2EKdmT99NOOy3abGsDbCKle/fueaFhJli0MVb4kbwb1157bTTqn//8527o0KHbhKoVEjw9e/bMeWgU3aENtTb5vgBRn3a9VatW0YZa/auYV8U239p0+5tsf/zXX3+9+8Y3vuF++tOfRuJG/UgAmGjyPTR33HFHNA6VQh4kzd/C0ubNmxfVlQi86qqrIm+TjV/eFImA+LwkaMRXYkdtJdBULMwuPjeFw916662RgKzJQ3PxxRdHfVgdG6fmes011+SEl677cxSDPn36ONnZ+DZt2tQdd9xxUdidP05jj4emET6kGbolgiZDxmQqEIAABMpBAEFTDor04YcSXX755dHG9q677oqEyQknnJD3tF609CT/oosucjo7q7byamgTfN5550VCw7w8Rta8F76HwQ85k6AxUbH33nsX3Nz71yW6VLSxLnbmxoSXRJo8Eioa39VXX+1Gjx6d8zD5AsIPOVu/fn3BMz6FQrz8Tb9EgH/v+Lx8wWHeFeNk3pL4OZVSQs7iwlN8JYY0Z3mh7HyUL8j8OcY9Wb5XzTxjCBq+K8pBIPWC5qGHHnJ33313zm1cjknTBwQgAAEIFCeQdkFzyCGHuCeffNLts88+mDHFBHxBo42swsFUOnToEAkaOzRvCQP0O4V1yYNx+umnR94PhUV9/PHH0f9vu+22gofqLURKG2Tfq1Efgsbmcfjhh7vjjz8+2tBLdL3zzjuReCrkEWloQVPogH2hkL2GFjQSjJYkQiFr5klC0KT4Q+wN7YUXXnCXXXZZ5G1NY0m9oCHLWRqXDWOCAASyTCDtgqaqqspVV1c7/QGjpJdA/LC3CQ+FcVkokp70K+OZPeFXeJXCrCRGLORM9S2kyp+t+penRCFh5s0IETS+V6VYyJmdo5GI0Vi1MZdQO+OMM5yFZxUKObNwsmIemnjImcSROMjrUyjkrJiHRhzi4WgWpuaH00k0KmROY69ryJnGlcRDo42wZbiT7dasWROFxiFo0vsZ9kdGlrNAOyFoAgHSHAIQgEBCAgiahMCoXpBAXNBIDCjszERMPCmAvzmeOXNmtFlWsTMY8QPj1p9EhYWd2ZmYli1bRu1s011KyJn6rykpgE3S34wvXbo0dybGD69S2mYJGwkubeJrEzTqO35o34SaHZr3kwIUEzTqxz/U7ycF8K9b5jnd05IJ+Gmu/RA4n7OfFMDGIA9bKSFnZkv9f8SIEe6JJ57IpbWWCJO9SQqQ3i8TBE2gbRA0gQBpDgEIQCAhgUoXNEr3f/PNN7uRI0e6XXbZJeHsqQ4B59KS/hlbQCAtBBA0gZZA0AQCpDkEIACBhAQqVdCYkJGY2bRpk9u8eTOCJqHtt+fqfopkcfDfn7M9c2HuEBABBE3gOkDQBAKkOQQgAIGEBCpN0MSFjE0XQZPQ8FSHAAQgUIQAgiZwaSBoAgHSHAIQgEBCApUiaL744gv3i1/8Igovk0cmXhA0CQ1PdQhAAAIImvpZAwia+uFKrxCAAASKEUi7oNEh5O9///tRhiaJlmLFBM0VV1zhtmzZkqt20kknubPOOiuvmV7e+Omnn+au6YC0Hca2i9ddd5376KOPcnWOPvpo94Mf/CCvH4Upvfvuu7lr3/72t6NUvn7RCw110NrKQQcdFL2E0C+TJk1yr732Wu7SAQcc4AYOHJhXZ8qUKU6H0q0oE5je9+KX3/3ud1FGOCtf+cpXouxZfvnDH/4QpcG20qRJk+j8kV/+9Kc/uccffzx3aeedd47SFPtFr1mIp3QVjx133DFX7dFHH3V//vOf89opm9kee+yRu6YD9Ar/8ovso3exWFH633vuuSevjg6Wf/3rX89dU5rZ3/72t3l1Lr30UueniX7llVfc5MmT8+roQLySDFh58803o5TRfundu3f0sksrysp200035dXp0aOHO+KII3LX1q5dG2UW84sSJOhlk1Y2btwYvbDSL2effbY78cQTc5c+//xzd+WVV+bVOfPMM12XLl3yril73NatW3PXTj75ZPef//mfeXX0/pzPPvssd02pqM8999xt7KMUz1aOOeaYKEudX/7v//7Pvffee7lLhx12mPvRj36UV+eWW25xyh5n5eCDD3Y/+clP8uroM62001aU0XDAgAF5dX7961+7l156KXdtv/32i9IJ+2X69Onuueeey1366le/ug2ze++91z399NO5OspcF2f/xz/+0f3tb3/L1dl11123saH2qXoZql+UJGGHHXbIXfrrX//qHnzwwbw6ymC322675a4pScJ9992XV0epzZXQwooSYPz+97/Pq6Pvt6997Wu5a/Kk6H1PftHLX5Uow8rLL7/sfvWrX+XVUYZAJbCw8sYbb7jbb78992/Z98UXX3TPPPNMXru0/CP1aZu12PQFqbfZUiAAAQhAoP4JpF3Q/M///E/0DhD9sfU39HEyJmi08f/yyy9zv9Z7UDRHv2gD4IujQw89NLqHX7SB1jtRrBx44IFO4sgvEge+6JEQUaYrv2iT5G/+tNH47ne/m1dHm35tkq1oo66NrV/04sm33nord0l/0OMiTAJC73Cxok1bfDO6YMECt2zZslyd3Xff3Wkz7hcJnr///e+5SzvttJO78MIL8+pIZPjiSb/Uxt8XNNps+ZtI1enZs6fTRtGKbCpR4xcJRwktK6+++qqbP39+Xh2JXP/dRBIic+fOzaujd9Xsu+++uWurVq2KXuTpF236laXMit4xc//99+fV0Xty9t9//9w1iZW4CJOA8IXRhg0bttmM/vu//7vTxt6KxIU2437p2LGjkzC2Is+k0h37ReL6yCOPzLumjb8vaEpZ9xJpSuPsF70L8JNPPsldkgD/zne+k1dHWel80SMhEhdYc+bMcQoPtaKMdBJifnnggQeidM5W9C6i733ve3l1JJz9BwIS6fHsaBIQvjDaa6+93H//93/n9SOhoo29FYlqfbf4RckhtIm3IiEff0ChDb4vnlT3xz/+cZ6gef7556MU336R4POTlhRa9z/84Q/dnnvumWsmAe4/WNAvJIp9sS8hEhdY8XUvYfmXv/wlbzx6yKOHIlZkB9nDir6z9F2iF6qmsaRe0KQRGmOCAAQgkGUCaRc0Pntt2hRyVkjYEHKW5VXK3CAAAQj8iwCChtUAAQhAAAJ5BCpJ0NjACwkbBA0LGwIQgMD2QQBBs33YmVlCAAIQKJlAJQqaQsIGQVOyyakIAQhAoKIJpF7Q6FCkYg/jccEVTZ3BQwACEEgxgbQLGh2q1yF6nfUoVuSx0dkMXqyZ4oXG0CAAgYohoLNkOm8WP0OUlgmkXtCQ5SwtS4VxQAAC2wuBtAsaHTjW4XP9AaNAAAIQgED9E+A9NIGMETSBAGkOAQhAICEBBE1CYFSHAAQgkHECCJpAAyNoAgHSHAIQgEBCAgiahMCoDgEIQCDjBBA0gQZG0AQCpDkEIACBhAQQNAmBUR0CEIBAxgkgaAINjKAJBEhzCEAAAgkJIGgSAqM6BCAAgYwTQNAEGhhBEwiQ5hCAAAQSEkDQJARGdQhAAAIZJ4CgCTQwgiYQIM0hAAEIJCSAoEkIjOoQgAAEMk4AQRNoYARNIECaQwACEEhIAEGTEBjVIQABCGScAIIm0MDr1q1zH3zwgWvTpk1gTzSHAAQgAIFSCKRd0OgPa/v27d1OO+1UynSoAwEIQAACgQQ++eQT99Zbb7lDDjkksKf6aZ76F2vWz7TpFQIQgAAEihFIu6DBchCAAAQgAAGfAIKG9QABCEAAAnkEEDQsCAhAAAIQqCQCqRc0X375pdN/O++8cyVxZawQgAAEKpZA2gXN5s2b3a677prHd9WqVe7nP/+5a9Kkv2ZxAQAAIABJREFUScVyZ+ANR+Djjz92TZs2dePHj2+4m3InCFQwga1bt7ovvvjC7bLLLqmcReoFDUkBUrluGBQEIJBhAmkXNFVVVa66utrpD5iVBQsWuIEDB7rLLrssw5ZhauUi8MILL7hf//rX7pJLLnGjRo0qV7f0A4HMEiApQKBpETSBAGkOAQhAICGBShU0Y8aMcQ888EDC2VJ9eyQwf/58N27cuGjqRx11FKJme1wEzDkRAQRNIlzbVkbQBAKkOQQgAIGEBBA0CYFRveIISNDcfPPN7u6773b//d//jaipOAsy4IYmgKAJJI6gCQRIcwhAAAIJCSBoEgKjesURMEHzxz/+0ek8DaKm4kzIgBuYAIImEDiCJhAgzSEAAQgkJICgSQiM6hVHwBc0GjyipuJMyIAbmACCJhA4giYQIM0hAAEIJCSAoEkIjOoVRyAuaBA1FWdCBtzABBA0gcARNIEAaQ4BCEAgIQEETUJgVK84AoUEDaKm4szIgBuQAIImEDaCJhAgzSEAAQgkJICgSQiM6hVHoJigQdRUnCkZcAMRQNAEgta7Bh577DH305/+NLAnmkMAAhCAQCkE0i5o+vXr52688ca8l2jqPTShaZsXLVrkLrjgArd8+fIcpnPOOcdNnTrVNWvWLErz+/rrr7uJEyeWgjGqs27dOterV6+o365du5bcLq0Vxb5Nmzaue/furnfv3lG6406dOpV1uLLD8OHD3ZQpU1zr1q1zfa9YsaJs96xJ0CBqympOOssIgX/84x/uzjvvdNdee20qZ5T6F2umkhqDggAEIJBhAmkXNIXQl0vQDBo0KHp7vG3StYFfs2ZNTtQkNXuWBI3NpXPnzm7w4MFJUZRcf/bs2ZE4nTVrVp6gKbmDEipK0MjWsm+xsmnTpmgDpxe53n///SX0ShUIQKCxCCBoGos894UABCCQUgIImn8JGt8rINFkHhpthCdNmhRZsG/fvtEGXJ6Yww8/3E2fPj3y8mhDfuqpp+Y8NPbznDlzonby/kg8aWNtHhxt5qdNm7aNgPLvd+yxx+Y2+/513U9eIPXRrVu33NjkUTIxonu3bds2uke7du2isZlAsXvbmJo3b56bo/rWnIYMGRK1l4fs9ttvjzw04rJw4UK3atUqt3jx4ohH/J6a68aNG7fx6MjrpT6Nx+jRo6MxWT/yBlnfp512mnv66aeD76l7ffTRR27kyJFut912q/FTuH79enfvvfe6999/P6WfVoYFAQiIAIKGdQABCEAAAnkEEDT/EjS+h0Ubegmanj175kKiBE6hV9qUT5gwIeKoELV58+ZFIkc/Dxs2LBIsBx98cPT79u3bu7hQ0nV5PSyky/eAqK7EQseOHfNC2NTGPBkrV66MxnTddde5gQMHuqFDh+aJqUceeSS6t4SGeUBsbDUJGtWX6JCoMKGj+n7ImQTNzJkzI5GlcZiXy4SO8RAjCSnzfvkMTFyJkz+vGTNm5Po21iai6nLPpB91CRlxf+2115I2pT4EINCABFIvaF566SX3zDPPRH8MKBCAAAQgUP8E0i5o5IWQ92DnnXfOwXj77bed/tPGu65FZzfiIWeFBI15Y+TtiHsjzNNim3UTOna9kKdE45UYuv76691VV13l+vfvX/BcStwbYwLLP9NT6PxJPOwtPrZigqam63FBI+4SLvJo+ALP+ih2/sXm5J9V8kPOJGjiffteobrcM8n6QNAkoUXdLBPQ96s+mwMGDEjlNFMvaMhylsp1w6AgAIEME0i7oPna174WhR01adIkZ4VXXnnF/fWvfy27oCkWcqYb63cK7VJ4lDwP8lDUJGjURvVVT2Fjdqhe3gltErT51+b9tttui5IQWLFkBX369HEXX3xxLoQtC4JGc/RF3tixY6OQNvM8IWgy/EXD1CqKAFnOAs2FoAkESHMIQAACCQmkXdDokLYyYOqJnJWGSAowefLkXMiZPCoSHio682FCRZ6jQmFdFmVg52MUkuaHYOnJp/o844wztjlw73tdFNKlvrTxV/FDzuRdUnibPD1+yJmEkkLlVPyxSViprl23BAh+aJlC3+JnawqFnNXmRYnP1wShecSUzczC7eoqaOKem0L3TPhRiM7OEHKWlBr1s0gAQRNoVQRNIECaQwACEEhIYHsWNKWmbfYPs/tJATZs2BCdn1GJJwWQV8Y8Oj169IgOycc9OoXSIPseDIVmNW3a1HXo0CESPv44JHJ0zU8/baFcJrz8pAA6yxJPIKCMbsUEjcK7JJR0HqdQUgA//EvzsHMxumexpAD+/W2sS5cujbgoCYAlBYj37Z/PsTC3Uu+Z5OOAoElCi7pZJoCgCbQugiYQIM0hAAEIJCSwvQqahJjyqoemNC6W3SxkTGlq2xCpmOPzLcc9ETRpWkWMpTEJIGgC6SNoAgHSHAIQgEBCAgiahMC8cyB1eUeLeVks7XLyu6ezhe89Mo9Vfb9ctNz3RNCkc20xqoYngKAJZI6gCQRIcwhAAAIJCSBoEgKjemYJIGgya1omlpAAgiYhsHh1BE0gQJpDAAIQSEgAQZMQGNUzSwBBk1nTMrGEBBA0CYEhaAKB0RwCEIBAIAEETSBAmmeGAIImM6ZkIoEEEDSBAD/55JPoRV1KhUmBAAQgAIH6J5B2QfPmm2+6/fff3+244445GOVI21z/ZLlDpRFA0FSaxRhvfRHYtGmTe++991yrVq3q6xZB/ab+xZpBs6MxBCAAAQgkJpB2QVNoQgiaxGamQQkEEDQlQKIKBFJAAEGTAiMwBAhAAAJpIoCgSZM1GEtjEkDQNCZ97g2B0gmkXtBs3rzZffrpp65Zs2alz4qaEIAABCBQZwJpFzTaZH71q191O+ywQ26OeGjqbG4a1kAAQcPygMA/CXzxxRdOLw6WcEhjSb2gIctZGpcNY4IABLJMIO2CpqqqylVXV+f9YZWg6dmzpzv77LOzbBrm1sAE9ED1T3/6k1u9enUD35nbQSBdBEgKEGgPBE0gQJpDAAIQSEigEgWNpjh16tSEM6U6BEoj0KtXr9IqUgsCGSWAoAk0LIImECDNIQABCCQkUKmCJuE0qQ4BCEAAAiUSQNCUCKpYNQRNIECaQwACEEhIAEGTEBjVIQABCGScAIIm0MAImkCANIcABCCQkACCJiEwqkMAAhDIOAEETaCBETSBAGkOAQhAICEBBE1CYFSHAAQgkHECCJpAAyNoAgHSHAIQgEBCAgiahMCoDgEIQCDjBBA0gQZG0AQCpDkEIACBhAQQNAmBUR0CEIBAxgkgaAIN/MILL7hFixa5iy++OLAnmkMAAhCAQCkE0i5orrjiCjdixAi35557ljId6kAAAhCAQCCBlStXut/97ndO379pLKl/sWYaoTEmCEAAAlkmkHZBk2X2zA0CEIAABJITQNAkZ0YLCEAAApkmgKDJtHmZHAQgAIHMEUDQZM6kTAgCEIBAGAEETRg/WkMAAhCAQMMSSL2g0RmahQsXuj59+jQsGe4GAQhAYDslkHZBM2TIEHfNNddwhmY7XZ9MGwIQaHgCK1asiM7QDB06tOFvXsIdUy9oyHJWghWpAgEIQKCMBNIuaKqqqlx1dbXTHzAKBCAAAQjUPwGynAUyRtAEAqQ5BCAAgYQEEDQJgVEdAhCAQMYJIGgCDYygCQRIcwhAAAIJCSBoEgKjOgQgAIGME0DQBBoYQRMIkOYQgAAEEhJA0CQERnUIQAACGSeAoAk0MIImECDNIQABCCQkIEHz8ssvJ2zVcNU3btzomjRp4nbYYYeGuyl3ggAEILAdE9iyZYv77LPPou/etJYuXbq4WbNmlTS8HbZu3bq1pJplqoSgKRNIuoEABCBQIoHzzz+/xJqNU+3Pf/6zO+2009yuu+7aOAPgrhCAAAS2MwLr1q1zS5YscSeffHKqZ37vvfeWND4ETUmYqAQBCEAAAvVFgCxn9UWWfiEAAQgUJpD2kLOkdkPQJCVGfQhAAAIQKCsBBE1ZcdIZBCAAgVoJIGhqRVRzhc2bN7tNmza5vfbaK7AnmkMAAhCAQBYIrF27NnoHDWdosmBN5gABCFQCgS+++MLp/OI+++xTCcOtdYwN7qGpdURUgAAEIAABCEAAAhCAAAQgUCIBBE2JoKgGAQhAAAIQgAAEIAABCKSPQIMLmo8//titX7/etWjRIn00GBEEIAABCDQ4gddff93pHM2OO+7Y4PfmhhCAAAS2RwI6/vHuu++61q1bZ2L6DS5oSNuciXXDJCAAAQiUjQBJAcqGko4gAAEIlESApAAlYSpeCUETCJDmEIAABDJGAEGTMYMyHQhAIPUEEDSBJkLQBAKkOQQgAIGMEUDQZMygTAcCEEg9AQRNoIkQNIEAaQ4BCEAgYwQQNBkzKNOBAARSTwBBE2giBE0gQJpDAAIQyBgBBE3GDMp0IACB1BNA0ASaCEETCJDmEIAABDJGAEGTMYMyHQhAIPUEEDSBJkLQBAKkOQQgAIGMEUDQZMygTAcCEEg9AQRNoIkQNIEAaQ4BCEAgYwQQNBkzKNOBAARSTwBBE2iiZcuWuWeeecb16NEjsCeaQwACEIBAFgiMHj3aXXbZZW6PPfbIwnSYAwQgAIHUE3j77bfdfffd5y655JLUj7WUATb4izVLGRR1IAABCEAAAhCAAAQgAAEIlEIAQVMKJepAAAIQgAAEIAABCEAAAqkkgKBJpVkYFAQgAAEIQAACEIAABCBQCoEGFzRLlixxjz32WBQvTYEABCAAAQj07dvX3XTTTa5JkyYNDmP27NluzJgxbtasWa5169bB9y93f4UGtG7dOterVy93wQUXuK5du5Y8Zo1t2rRpburUqa5Zs2YF240bN869/vrrbuLEiTX2a2No3rx5rXVLHmAZKmqO3bp1y+vpnHPO2WbOdWVoHV9++eXRfVavXu2WL1/uBg8evM3o+/Xr59q0aVPwd6FTXbFihevdu7cbNWqU69SpU667RYsWueHDh7spU6a4GTNmuIULF9Zo79BxhLbXPMRx6NChidZybfcV+0mTJjl9t9S2lm3NX3XVVdsw9dfJscceW5B5bWNJ6+/ffPNNd+edd7rrrrsurUNMNK4GFzRkOUtkHypDAAIQyDyBxsxyVm4BUu7+GlrQaCOoUtsmUBvnsWPHuqZNm7rrr7++LGKwHAs9zt82pJ07dy6bsNA9fBFj4sYXFvVxX5+P+A8aNMiNHz8+T9D4899eBU0xsVdsfdUkaEphXo512xh9kOUskDqCJhAgzSEAAQhkjEBaBI1tAFetWuUWL14cPd2V98b3hvgbST2dN2+APQmObyjvuOOOyCuiIo+KNsJ60lvII+R7F6w/3c/aqQ+JiIsvvjg3plNPPTX6ec6cOa5t27bRvVq1apX31Ns2bKeddlrOQ7N06dJt+lV7m4/Gp3Hq32JhfdumXX36RR6KuAfIxJGefMf7adeuXTRueXgeeeSRaFx33XVX9FRdxWdkT9u7dOkS/U7/lmdKYxgyZEh0rRB/87j58zehtv/++7u1a9dGDAox1Dx99jaevffeO/ImaE7Wv+qJ14033phDYmOL20Qsi9m/1HnampTNfe+TeTts7co79PDDD0djmjt3bp63wu5layruYSq07k444YSc90dz1xzNAyQmZjutUfVnv9fn6bzzzovWkO8989fY0UcfHbX311kh/nEvavwz47MpxNmft/1en3t5JWvy0GjcGq/PfPLkydusP81ZQmHjxo1RXa1L2UHr1O63cuXK3Gcv/rlqyK92BE0gbQRNIECaQwACEMgYgTQJmpkzZ0YbF2067An4ggULcmFY2kBpA96zZ8/c721zLi+ANijaVF144YXRZlLhXevXr88LVSkU1uWH3tgGW5tteUCOO+64KETMBIOeymtsJnRsUzlv3rxIGCgNtsSChfEUEjRPPfXUNv1qrGqjEhdyvljR721TL04TJkxwt912W948xWTAgAERJ/3ewuPic7CQNc1fG9+OHTs6P8zHxmI2UT/aMKtY+Jx+NtHp19fm1/eUyDbaWKqd2awmhpdeemkupMsY2nw0Xwvb09htrdiG27+vCVDzEvlCwPrwhbBteGuaZ4sWLUry0PiCutB6LubN0Nqtad1JUEocSCRLpFuYot+fPjf2eRIXzdFCJH2viMSCBI3Epi+C/ZC6Qp8Z/+GC/xns3r17wdCwYmvMxl9byJnPXA8zCq0/9RV/iNGnTx+nMVlonb4/LBSx1BDP+vjKR9AEUkXQBAKkOQQgAIGMEUiToDFx4IsQ4bZNuzby2sT5G2ptSn3RoI1LsSfNZrr402P/7EP8KbT/pFpP5H1B42+OrO/4uYRCgkZjjvfrCxrfq2L92pz0b/NIaOMu4dK/f/8o9Mk2udr8idmVV14ZiQ15Dfx+tHnV7+OhYP4TdN1D81NRfV/oaONo3hnrV0/DZZtiZ2gk+Oy8lDwtJoIKMYx7KHQP2eyiiy5y1dXVeSF5cQaq6wua+Aa7kK39UL9S5ukLaj/UrVjImb+efU+YsTOviv/VUmh9yCuhojmZQFLIoXln/P70c/wMT9yjYussLr41P98zafx9z2bcI1hq6Fh8jdVF0EisFVp/EiqFvkN8Aa25xL8jGuMrHUETSB1BEwiQ5hCAAAQyRiDtgsa8Deeee270VFaCQht0/4C9LxriHhqFd9lB7WKJB4oJGm2+nn322UhA2D3LIWi0gYz3Gxc0hQ6da+n5G8L4htg8WNrY2ca3UD/xMya2edbTbD+kriZBUyh5QU1nmPzflSJoCtnM5uefMapvQVNonknP0MQFTW3JCgqtO60PrWUJ0dNPPz3auJtXpVB/vidKa0ECUkX9SBhZmJefFMD3hNX2mUkqaIqtsboKmkJ28efsM/cFje+lkigqlLSiIb7iETSBlBE0gQBpDgEIQCBjBNIuaPQEXBuVhx56yB100EHRJq5YuIuFnEmA6Mm1NnoWbqJzBP7ZAj/bWKGQM3kvtGmyzaI2mWvWrMnz0Ggz5oecSUyp32HDhkXeDxMHCu3yz9BI0MT7LRRyZiFhJgZ++ctfuquvvjovu5YvxrQ0JWC2bt3qrr322lxoV7wff4xi4vcRD7kyr0r8ejx8zA/5K3ZGqZCHphBDzXPgwIHR2Q/fZvJEycPRkCFnheap8yxJkgL4m2s/FMy8BfEsY36GNlt3spmKPHLLli2LvG92lslCy/z+fK4maPwzS1oTxTw0dr2mz0zSkLNia6wugkYhZ4Xs4nuligkaiXR9FsWulMyD9fV1j6AJJIugCQRIcwhAAAIZI1AJgqZQetlCh/jjZyFs0ymT1ZYUoFCIj8KkLIRqxIgR7oknnnC33nprJFjsXEo8hMY/MC+BJUGmszi+oCnUr6X61UatWFIA/+yAnf+Ip0COnxHxD6tb2Jp/5kGCwfqwQ9cab4cOHSIxUepheQnNunho7DyIhU1p7rpWLCmAH2Inuxby2pgnyxIeWKKGciQF0DyNacuWLfPSMtuYZeti4U8WGhg/xO9/rfhr29ad1oedhYmnOi+UZCC+DvxECT169HDPP/980fNe9tCgts9Moc9gsXNBxdaY5l1bUgCNw5JkGPNiSQFqCzmrKdlGub7aN23a5Hbbbbcau0PQBNJG0AQCpDkEIACBjBFoTEGTMZSZnk6xMKuGnnQpaZtDxpSWeYbMgbaNS0AC7eyzz47e+SiPaaGCoAm0kdzQX375pdtpp50Ce6I5BCAAAQhkgcAXX3zhdt555yxMhTmUmYD/BF5dFzq8XuZb1tqdf2ZGHit5YWp7b09tnaZxnrWNmd+nl4AEjbyhKu3bty8obLQf37JlS2a+exv8xZrpNT8jgwAEIAABCEAAAhCAQGUT8AWNzaSYsKnsmf5r9AiarFiSeUAAAhCAAAQgAAEIbPcECgkag/Ltb3878tjoXVlZKg0uaD766CP3wQcf5FxhWYLJXCAAAQhAIDmBUaNGudtvvz15Q1pAAAIQgMA2BBRKpr12TUWJOS655JLoHVJZKA0uaEgKkIVlwxwgAAEIlI/AAQcc4PTm+n/7t38rX6f0BAEIQGA7JfDGG2+4Qw89tODs9X0rD81JJ50UpeB+/PHHM0EJQZMJMzIJCEAAApVLgCxnlWs7Rg4BCKSPQKGQMxMySiWvQpazQLvhoQkESHMIQAACGSOAoMmYQZkOBCDQqAR8QRMXMjYwBE2giRA0gQBpDgEIQCBjBBA0GTMo04EABBqVgATNKaecEoWWmUcmPiAETaCJEDSBAGkOAQhAIGMEEDQZMyjTgQAEGpXAhg0b3F577VXjGBA0gSZC0AQCpDkEIACBjBFA0GTMoEwHAhBIPQEETaCJEDSBAGkOAQhAIGMEEDQZMyjTgQAEUk8AQRNoIgRNIECaQwACEMgYAQRNxgzKdCAAgdQTQNAEmui1115zL7zwgjv33HMDe6I5BCAAAQhkgcAvf/lL95Of/MTtvvvuWZgOc4AABCCQegLvvPOOe+ihh1zPnj1TP9ZSBtjg76EpZVDUgQAEIAABCEAAAhCAAAQgUAoBBE0plKgDAQhAAAIQgAAEIAABCKSSAIImlWZhUBCAAAQgAAEIQAACEIBAKQQaXNA89dRT7pFHHnFXX311KeOjDgQgAAEIZJzAD3/4Qzd58mTXtGnTjM+U6UEAAhBIB4Hly5c7nV+85ZZb0jGgwFE0uKAhy1mgxWgOAQhAIGMEyHKWMYMyHQhAIPUEyHIWaCIETSBAmkMAAhDIGAEETcYMynQgAIHUE0DQBJoIQRMIkOYQgAAEMkYAQZMxgzIdCEAg9QQQNIEmQtAEAqQ5BCAAgYwRQNBkzKBMBwIQSD0BBE2giRA0gQBpDgEIQCBjBBA0GTMo04EABFJPAEETaCIETSBAmkMAAhDIGAEETcYMynQgAIHUE0DQBJoIQRMIkOYQgAAEMkYAQZMNgy5atMhdcMEFbuzYsa5r164VO6nZs2e7adOmualTp7pmzZpV7DxKHfi6detcr169IttVst1KnS/1/kkAQRO4Eh5++GF39913R18UFAhAAAIQgEC7du3cwoUL3T777AOMCiYwbty4aJP0jW98w914440VPJPta+gImu3L3jbbv//97+5nP/uZe+ihhzIBoMHfQ5MJakwCAhCAAAQgAIEcAW2KBwwYED3ll3ejf//+rlOnTq5fv36uTZs2bvDgwW7FihWuW7dubujQoa5FixZRXb3c79hjj3WzZs2K+urdu7dr3ry5e/nll6MHn8OGDXNz5syJfnfOOefkHobKo6DrurZx40Y3atSo3P0mTZoU1ZenSPe1Yhv3ww8/3E2fPj26t+576qmnRh4K3Vcv/v7xj3/snn766ehe8+bNi8as0rdvXzdx4sToZ82r2H30e/NW6R7+WCT6hgwZkjcf3wtkY4zP2a+jPvQAYNWqVW7x4sXRuMaMGRPNoXPnztGczcs0fvx4N2jQIOfP+a677op+r3v4bTV/m5O4yFvjz6OYnVS3devWfBog0KgEEDSNip+bQwACEIAABCqfgDa+2tjKM6MNt4q/sZY4WLp0qZswYYK78sor3aWXXpoTIar/+uuvu6uuuioSD+edd17U9sUXX4z6ad++fSSGJHYkXBYsWBBt6E1wSCBIROm6+pHo8OtLWKmYWNDP1lZCwISTNvRqa2Jg9OjRkUiQADPRYyKspvuof0WjHHfccVHImt+fzVteyUJhXsXmbHNQ3+I1c+bMiPfKlSsjwXL99ddHbIsJGpvz5MmT3R133BHxWr16dSSEbP5xLnqL/NVXX12rnSp/9TKDLBBA0GTBiswBAhCAAAQg0IgEtMlu27Zt7qm+Nte33XabW79+fbThlqdgxowZ0QhPOOGEnHfGhqyn/9pADxw4MBIQdpbD91iofwkOf+PuCxd5HszDYP36Xpp4aJW1lSAqJAbkZVL7KVOm5HkgfO9MofvYNd+7Yd4lzU1jtH8XOqMTn7PER1zQmKATXwm9YnMwD01c6JjAHD58uLv11lsjT5jVMS7nn3+++7//+7/Ik1WbnRpx6XFrCEQEGlzQvP/+++7tt992HTp0wAQQgAAEIAAB97e//c117NjR7bLLLtCoQAIWSqbwJysSH7YRlwDQZlleC4kEFW2k40LBD0mToJFnQx4beSIkeApt3OOCxsLbCmEsp6Cp6T66t+b87LPPRmMXFz/JgC9Y4mFxheZs4XQ2Jws5kyipb0Fz77331mqnClyyDNk5t2HDBrds2bLos5WF0uCChixnWVg2zAECEIBA+QiQ5ax8LBujp0JZwSyMzEK4brjhBnfIIYfkvDZ+aJlt0P0QLxM0JgR0lsUPLSsWcmahWOJg53Xi3h4/tMwPuYp7MQqFnKmOSk33MUFjokfiZs2aNU79yRMir4nOnPjni8xuPkt/zrV5aCR65KFSEXO7ZxIPjdr6oXjmMbMQwGJ2aow1xz3DCZDlLJAhgiYQIM0hAAEIZIxAKYJGfzu6dOmCFyeFti+0MVe4lXlh9t5777wD65pCscPmvgjxPT89evSIDv/rDIudZ6lrUgA9mZZYUPGTAhQLy7JzM36YWG1JAczTonuMGDHCPfHEE5GnQ94aSzJQKOys2Jz9dMqFPDQSNDoT4ycwkIhKImiaNm0a2cWSJdSUFCAuFlO4LBlSLQQQNIFLBEETCJDmEIAABDJGoCZBo78ZN998s5s7d67bvHkzgiZjtg+djoSDvCylZNqyUC8TLqH3pj0EKpkAgibQegiaQIA0hwAEIJAxAoUEjS9kbLoImowZvo7T8VMfm5ellBdCImjqCJxmmSSAoAk0K4ImECDNIQABCGSMgC9oCgkZBE3GDM50IACBRieAoAk0AYImECDNIQABCGSMgASNnrrrHRkKLStWzEOjbFlbt27NVVP7gw8+OK+Zzkh88cUXuWs6hK13f/hl/vz57rPPPstd2m+//dxhhx2WV0fvNvn4449z177+9a8QpHAiAAAT4UlEQVS7I488Mq/Ok08+Gb3jxMr/1979B1k9/XEcf0cqQ9aPMZgJ43c0U2kwiZY0bTPYYSjUIPIjv5VBJZllWAbJr/UrrIg0hJpdEyqFSeRXw5bNlkmZbMlm/f6D+c77M9/zmfO57uaz99x79+y5z/PX1+2czz3ncT53vp/Xns/nfPbaay855phjEnX02Ymffvop/ky369Wd3ezy2WefyZYtW+KP9JmGE044IVFHL0L0WQlTdt55ZykvL0/U0XeZ6PtJTNHd40455ZREHd3daP369fFnO+ywgwwbNixRp6mpKbFlr/5jRUWFdOnSJa737bffypo1axLt9BmXrl27xp999913snr16kSdk046SXr06BF/pruffvnll4k6ur3zLrvsEn/W3NwsX3zxRaKOGtpbH2/dulU++eSTRB3dxWnPPfeMP9u2bZt89NFHiToDBgyQvffeO/5Mn7PRjQfsoruz6gtBTfnjjz/kvffeS9TRd+b06tUr/kzP2XfffTdRRzdHOPDAA+PP/v7773+d94ceemi0DbZdMt/oftBBB8nhhx+eqJN53h9wwAFy5JFHJuosWbJE/vrrr/izbOe97jz4+++/x3X22Wcf6d+/f+I4+ryN7rJmSrbzXl9Q2tLSEtfZfffdo/fz2CXzvO/Zs2e0K55dVq5cGW2sYEq2817ffK8vGzWlW7duMmTIkMRxMs/7HXfcMXo2zy7ffPNN9D4juwwfPjzx3/rvWs8uac77k08+Wbp37x430/5qv+2S5rzXTSL02TRTdAdh3VXPLscdd5zsscce8Uc6Dzofpuhvd+bMmdFzUyEUdjkLYRYZAwIIINCJBfSCSv+Pfvbs2dsdhQk0o0ePFr0INKWyslL0oXG76Ba/dhDRi/VLL700UUe3ENYLYFMGDx4cve3eLjfccEPiIkkvjm+88cZEHX0hpP2uDg1F+kJCu+hD2+alifr5YYcdJnfeeWeijm7ha1+UaAjTF1XaRR/y1gfMTdGLcH3fi100GJqH3vVzvUB8+umnE3V0R6z6+vr4Mw09s2bNStTRLXv12RS7vPTSS6IXgabMnz9fXnzxxUQdffjdDiIaQJ955plEHd2Jyw4ZGgxqamoSdaZPny56bpiiF2PTpk1L1NHd03Q3MVM08OluYnbRh/LtMKsBbOrUqYk6EydOFA01pmgI05d72kVfimlfaG/evDl6b45dxo0blwiPesF/2WWXJeqMGTNGTj311PgzPa914wG7nHvuufG7eMzno0aNkn/++SeudsYZZ4j+Fuxy8cUXJ4KIXojrb8EuuqGBHa41XJrttE29CRMmRK/YMEVDiP4W7KIvSLUv/Pv16xe9HNUut99+e/RCVVP0Dw/6W7CLvutGQ40pGvb0t2AXfVeOHTA1YOlvwS76wtDFixfHH2nQ1d+CXfQC/s0334w/0nBhdoczH86ZMyfaMtwu+g4lO8jPmzdP9LdgF90hToOWKQsWLJDa2tpEHX0HkR0yNFzqb8EuDz74YCI46x9M9LdgF31uTAOtKRr09bdgl6qqqkSY1TCnvwVTNNjrH1Bs+8QBOtl/EGg62YTRXQQQQCA0AXPLme7wpBsA6EVHtsIzNKHNPONBAIGOEuCWM0d5XeLWlJi5fOd4WJojgAACCHRSAQ0w5513Xnwrhv4fbbZgQ6DppBNMtxFAwDsBvU1NV0bTbKjhXeezdKjoKzSdAYU+IoAAAgh0vEBmsCHQdPyc0AMEEEDARwECjY+zQp8QQAABBGIBE2xmzJjBe2g4LxBAAAEE/iVAoOGkQAABBBBAAAEEEEAAgU4rUPRAo7uz6M4q1dXVnRaNjiOAAAII5E/g9NNPj3Y40924KAgggAAChRfQbad1h7nMHRAL/82F+YaiBxreQ1OYieSoCCCAQGcVsF+s2VnHQL8RQACBziTALmeOs0WgcQSkOQIIIBCYAIEmsAllOAgg4L0AgcZxigg0joA0RwABBAITINAENqEMBwEEvBcg0DhOEYHGEZDmCCCAQGACBJrAJpThIICA9wIEGscpItA4AtIcAQQQCEyAQBPYhDIcBBDwXoBA4zhFBBpHQJojgAACgQkQaAKbUIaDAALeCxBoHKeIQOMISHMEEEAgMAECTWATynAQQMB7AQKN4xQtXrxY5s6dKzU1NY5HojkCCCCAQAgCAwcOlLfeekvKyspCGA5jQAABBLwXWLVqlUydOjW6Jg+hFP09NCGgMQYEEEAAAQQQQAABBBDwQ4BA48c80AsEEEAAgQyB1157DZMSEti2bZuMHTu2hEbMUBFAIF8CBJp8SXIcBBBAAIG8CXzwwQcyevRoGTZsWN6OyYH8FWhsbJRPP/1Unn/+eRk5cqS/HaVnCCDgpUDRA82mTZtk/fr1ovdMUxBAAAEEEKivr4+CS7du3WIMDTT33HOP1NXVAVQCAkuXLo3u59frg/vvv59QUwJzzhA7VkBXRD///HMZMmRIx3YkT99e9EDDLmd5mjkOgwACCAQikG2XMwJNIJObchgaaB544AGZPHmynHPOOTJt2jRCTUo7qiGQiwC7nOWiZrUh0DgC0hwBBBAITIBAE9iE5jAcE2jmzZsny5cvJ9TkYEgTBNojQKBpj1aWugQaR0CaI4AAAoEJEGgCm9AchmMHGm1OqMkBkSYItEOAQNMOrGxVCTSOgDRHAAEEAhMg0AQ2oTkMJzPQEGpyQKQJAu0QINC0A4tA44hFcwQQQKAEBAg0JTDJ/zHEbIHGDjX6fM2IESOAQgCBPAkQaBwhWaFxBKQ5AgggEJgAgSawCc1hOG0FGkJNDpg0QSCFAIEmBdL2qhBoHAFpjgACCAQmUKhA8+GHH8oFF1wga9eujcXOPPNMee6556SsrEzuu+8+WbdunTz++OOpRX/++We56KKLouOeddZZqduFWlFffvrCCy/EprmOc3uBhlCTqyrtEGhbgEDjeHYQaBwBaY4AAggEJlDIQHPdddfJww8/LMcff3ykduWVV8oPP/yQ8wU4gaYwJ58GmjvuuENqamra/IKVK1fK+PHjZdKkSXL99dcXpiMcFYESESDQOE70999/H/1FbPDgwY5HojkCCCCAQAgCr7/+upx22ml5f7GmrtBkBpoNGzbI2LFjo4tnfdeNWaHRoPPEE09EnFdccUX0Uk9dienXr5/MmjUrWuWZO3euDB06NF6hMf/7jTfeiNrp6o+GJ/1Os4LT1gqG/X3HHntsdOzq6mo5+OCD5aabbhLt59lnnx1dvO+3337xSpOpq9+n49h3332lsbExCmhTpkwRuy/6mRYdh36u/fv111+jsffq1Ss6/ooVK+SQQw6JVllM6NM2Jri1NX793nfeeUcuueQS+fjjj6PvX7RoUXRMY2hWvuyx3nvvvdH4MosGmgkTJiTOgWzntr4MsEuXLrJ69eoQTn3GgECHCbS0tES//4qKig7rQz6/uOgv1sxn5zkWAggggECYAvl4sWa2QGOvsGhI0UBz4YUXym233SbPPvtshKlB4eabb5bHHnss+m9zsa4hxwQHDSxHHHFE9O99+vSJAogdlPRzvXDXi3kTUsxMaV39497AgQPj4KDH02Ju31q1alX0/fqiSV2N0BCigcPcJnfLLbdE4WHkyJHR9zQ0NLTZl2XLlsVj0HFp0NBjby90Gae2xq+BRo9jAttdd90VBScNYHboM8Za1zayw1N7zuAff/wxcmtqampPM+oigEDgAgSawCeY4SGAAAK+C+hFcWbRv8DX19eLXoznWtIGGrMao6sYujqjF9+Zt5aZi3ETdEwYMPW0rVnp0P5qYNAVFw0eV111VWL1w4zHXrnQFRpdfTErSi+//HJU7cQTT/zXc0Ba75FHHpFrr702ChDmWZ7MvpjgMmjQoHjVR0PX1VdfHfVN/zprSuYqzX+N3xzTBBodo66+aCjcf//94+PaYzQftrVKk2aeCTRplKiDQOkJEGhKb84ZMQIIIOCVQG1trbz//vuJPjU3N4veEpHvQNPWLWf65eY2L73Q15USDRkmuGQLNNpGV0lMGDErNEcddZRcc801ohf92v9HH3002oTAFLNZwbhx4+Tyyy9PbDKgAUDbvf3221EQ0mJWj+ygYN+SpoFGg0VmX0z4yhZo9FkVs+qT7WTIZ6DJXKFyOfkINC56tEUgXIGiB5olS5aI3i/90EMPhavKyBBAAAEEUguUl5dLXV2d7LbbbnGbQt1yZm8K8NRTT8W3nOmKigYPLXrrlAkH9q1VmbecaV1zi5g+P6IBwjyLogFDjzl8+PB/PTOigcaElI0bN0ahSVctTDC5++67pXfv3lF/WltbE7eW6S1nGpLsW7xMu2x9Uce2bjnLHJsGMxOaTKBpa/yZKzTZbjnTOlpeeeWVKPSZAGivKqU+Sf5fkUDTXjHqI5Bd4Ouvv5aqqioxq8Gd3anogYZdzjr7KUP/EUAAgfwKFHKXs7TbNmtQ0ECixd4U4JdffokedteSuSmA3vplHqw///zzowfuM1d0sq2C2LeG6YP6u+66q/Tt2zcKPubfTGDQ77W3n7Y3BTCbBmigsVeX7L7YGxfksilAW+PPDDT6bJE+92O87e2x02wKkPaMItCklaIeAtsXYJczxzOEQOMISHMEEEAgMIFCBRoXpmzBoj3Hy9f7Wdrznf9VV/ukq0z2SkxbbVzH/199yfXfCTS5ytEOgaQAgcbxjCDQOALSHAEEEAhMILRAY1Z7NDh09Ms37ZUns8qUpk8EmsB+ZAwHgQwBAo3jKUGgcQSkOQIIIBCYgI+BJjDiYIbDCk0wU8lAOliAQOM4AQQaR0CaI4AAAoEJEGgCm9ACDodAU0BcDl1SAgQax+km0DgC0hwBBBAITIBAE9iEFnA4BJoC4nLokhIg0DhON4HGEZDmCCCAQGACBJrAJrSAwyHQFBCXQ5eUAIHGcbr15Wnz588XfVCRggACCCCAQEVFhbz66qt5fw8NsuEJEGjCm1NG1DECjY2NUl1dLTNnzuyYDuT5W4v+Hpo895/DIYAAAggEKJCPF2sGyFLyQyLQlPwpAAACWQUINJwYCCCAAALeCRBovJsSLzpEoPFiGugEAt4JEGi8mxI6hAACCCCggWb8+PEyZcoUMBCIBVpbW2XSpEmyadMmVBBAAIFYoOiBZsOGDbJmzRoZOnQo04AAAggggIDMnj07egFl9+7dYw29v3vy5MlSVlaGEAKxwJ9//il9+vSRW2+9FRUEEHAQ2Lp1qyxbtkwqKysdjuJP06IHGnY582fy6QkCCCDgg0C2Xc586Bd9QAABBEIVYJczx5kl0DgC0hwBBBAITIBAE9iEMhwEEPBegEDjOEUEGkdAmiOAAAKBCRBoAptQhoMAAt4LEGgcp4hA4whIcwQQQCAwAQJNYBPKcBBAwHsBAo3jFBFoHAFpjgACCAQmQKAJbEIZDgIIeC9AoHGcIgKNIyDNEUAAgcAECDSBTSjDQQAB7wUINI5TRKBxBKQ5AgggEJgAgSawCWU4CCDgvQCBxnGKCDSOgDRHAAEEAhMg0AQ2oQwHAQS8FyDQOE7R5s2bZePGjTJgwADHI9EcAQQQQCAEgUWLFkl5ebnstNNOIQyHMSCAAALeC7S2tspXX30lgwYN8r6vaTpY9BdrpukUdRBAAAEEEEAAAQQQQACBNAIEmjRK1EEAAQQQQAABBBBAAAEvBQg0Xk4LnUIAAQQQQAABBBBAAIE0AkUPNAsXLpQ5c+bIjBkz0vSPOggggAACgQv0799fli5dKmVlZYGPlOEhgAACfgg0NDTIxIkTpa6uzo8OOfai6IGGXc4cZ4zmCCCAQGAC7HIW2IQyHAQQ8F6AXc4cp4hA4whIcwQQQCAwAQJNYBPKcBBAwHsBAo3jFBFoHAFpjgACCAQmQKAJbEIZDgIIeC9AoHGcIgKNIyDNEUAAgcAECDSBTSjDQQAB7wUINI5TRKBxBKQ5AgggEJgAgSawCWU4CCDgvQCBxnGKCDSOgDRHAAEEAhMg0AQ2oQwHAQS8FyDQOE4RgcYRkOYIIIBAYAIEmsAmlOEggID3AgQaxylavny5LFiwQKqqqhyPRHMEEEAAgRAERowYIbW1tdKzZ88QhsMYEEAAAe8FmpqaZPr06VJTU+N9X9N0sOjvoUnTKeoggAACCCCAAAIIIIAAAmkECDRplKiDAAIIIIAAAggggAACXgoQaLycFjqFAAIIIIAAAggggAACaQSKHmjWrVsnDQ0NUllZmaZ/1EEAAQQQCFzgySeflDFjxkiPHj0CHynDQwABBPwQ2LJliyxcuFBGjRrlR4cce1H0QMMuZ44zRnMEEEAgMAF2OQtsQhkOAgh4L8AuZ45TRKBxBKQ5AgggEJgAgSawCWU4CCDgvQCBxnGKCDSOgDRHAAEEAhMg0AQ2oQwHAQS8FyDQOE4RgcYRkOYIIIBAYAIEmsAmlOEggID3AgQaxyki0DgC0hwBBBAITIBAE9iEMhwEEPBegEDjOEUEGkdAmiOAAAKBCRBoAptQhoMAAt4LEGgcp4hA4whIcwQQQCAwAQJNYBPKcBBAwHsBAo3jFBFoHAFpjgACCAQmQKAJbEIZDgIIeC9AoHGcopaWFmlubpbevXs7HonmCCCAAAIhCKxYsUKOPvpo6dq1awjDYQwIIICA9wK//fabrF27Vvr27et9X9N0sOgv1kzTKeoggAACCCCAAAIIIIAAAmkECDRplKiDAAIIIIAAAggggAACXgoQaLycFjqFAAIIIIAAAggggAACaQSKHmjYFCDNtFAHAQQQKB0BNgUonblmpAgg4IdAaJsC/A/PzzaqTeLlyQAAAABJRU5ErkJggg==;" vertex="1" parent="1">
                    <mxGeometry x="-80" y="10" width="820" height="778" as="geometry"/>
                </mxCell>
            </root>
        </mxGraphModel>
    </diagram>
</mxfile>